<svg xmlns="http://www.w3.org/2000/svg" viewBox="0 0 422.43 55.68"><g id="图层_2" data-name="图层 2"><g id="图层_1-2" data-name="图层 1"><g id="图层_2-2" data-name="图层 2"><g id="svg2"><g id="g8"><path id="path320" d="M245.27,54.27c-5.1-2.57-4.23-4.39,1.94-4.06,7.16.39,7.89-1.17,7.56-16.22-.29-13-.8-13.66-6.77-8.64-3.24,2.73-3.31,2.93-1.52,4.24s1.75,1.63.46,4a14.29,14.29,0,0,0-1.42,5.67c0,1.67-.62,3.2-1.4,3.47-1.14.39-1.26-.68-.68-5.91.88-7.88-.47-6.83-2.84,2.22a47.22,47.22,0,0,1-3.73,9.89c-1.71,2.82-2.2,3.09-3.4,1.9-2.57-2.58,2.57-17.57,10.9-31.78,2.58-4.39,3.17-6.11,2.12-6.11-1.7,0-6.61,6.45-10.07,13.23C233,32.8,224.29,36.7,222.61,32.32c-.51-1.32-.11-1.52,2.14-1.08,2,.38,3.68-.16,5.87-1.82,3-2.28,6.22-8,5.13-9.08-.29-.29-3.32.88-6.73,2.6s-6.38,3-6.59,2.75,2.53-2.52,6.08-5.13C234.59,16.09,241,9.48,241,7.68c0-.44-.94-1.15-2.09-1.58-1.92-.71-1.76-1,2-3.63,5.12-3.55,7-2.52,5.32,2.92-1.07,3.49-1.07,3.49,2.51,2,5.59-2.34,5.86-.53,1.18,8l-4.21,7.67L249.1,21c7.47-4.55,9.92-2.14,9.79,9.62-.23,21.62-4.16,28.4-13.66,23.6ZM0,52.27a44.86,44.86,0,0,1,2-9.09,43.2,43.2,0,0,0,2-9.75C4,31.55,4.48,30,5,30s1,.69,1,1.53c0,1.23.92,1.42,4.75,1C21.84,31.31,22,31.2,25.54,23a68.9,68.9,0,0,0,3.84-11l.6-3.5-3.36,3.91c-3.29,3.83-3.38,3.86-4.52,1.73s-.53-8.74,1-9.71c.49-.31,1.16.14,1.49,1,.52,1.36,1,1.3,3.39-.44,3.23-2.3,7.25-2.59,8.86-.65.62.74,1,1.53.77,1.75a23.33,23.33,0,0,0-1,4.66C36,15,36,15,39,15a5.06,5.06,0,0,1,4.69,2.59c1.51,2.31,1.59,3.89.7,14.15-.93,10.76-1.18,11.72-3.73,13.91A9.54,9.54,0,0,1,34.18,48a61.77,61.77,0,0,0-10.82,1.65c-8.06,1.88-10,1.51-10.94-2-.45-1.82.21-3.69,2.47-7,3.74-5.42,3.76-5.63.6-5.63-3.4,0-6.25,3.1-7.09,7.69C7.28,48.87,4,55,1.88,55,.48,55,0,54.3,0,52.27ZM31.27,35.76a19.81,19.81,0,0,0,.32-4.48c-.68-.68-4.83,3.2-6.16,5.77C23.91,40,23.91,40,27.31,40S30.76,39.79,31.27,35.76ZM37,33.49c0-1.56-.57-2.5-1.5-2.5-1.5,0-2.1,3.08-.84,4.33s2.37.6,2.37-1.83Zm-3-8.11c0-2,.39-2.45,1.57-2s1.47.1,1.25-1.06c-.57-2.93-2.56-2.52-3.71.77C31.71,27,31.68,28,33,28c.58,0,1-1.17,1-2.61Zm51.69,28.2C78,51.53,75.55,49.2,75.2,43.43c-.19-3.16-.89-5.35-2-6.18-1.59-1.21-1.59-1.45,0-4,.93-1.5,3.1-5.37,4.83-8.61l3.13-5.89-3.29.65c-3.89.78-8.16,3.38-7.44,4.54.53.85-2,17.67-3,20.46S65,45,65,40.22V35.53l-3.73,6.58c-6,10.64-5.93,10.56-7.4,9.1-1-1-1-2.17.44-6.13,2.21-6.21,2.27-7.78.23-6.09-1.2,1-1.81,1-3,0s-1.23-1.63.85-4.38c2.45-3.22,5.67-9,5.67-10.19,0-.37-1.32-.41-2.92-.09-1.91.39-3.32.09-4.11-.86-1-1.18-.25-2.48,3.92-7,2.81-3.08,5.39-6.71,5.73-8.07.45-1.8,1.19-2.39,2.75-2.16,3.48.49,3.48,6.3,0,9.93-2.14,2.23-2.49,3.15-1.57,4.08,1.72,1.71,1.47,6.44-.49,9.43-1.6,2.45-1.59,2.56.12,2.22,1.06-.21,2.47-2.16,3.43-4.76.9-2.41,2.52-4.89,3.59-5.5a19.91,19.91,0,0,0,3.17-2.2,20.93,20.93,0,0,1,5.79-2.38c3.21-.89,4.59-1.81,4.59-3a4.5,4.5,0,0,1,1.53-3c1.3-1.07,1.71-.79,2.72,1.88s1.72,3.15,4.34,3.15c4.74,0,6,2.16,4.59,7.59-.65,2.44-1.18,9.56-1.18,15.81,0,14.51-1,16.11-8.34,14.15Zm3.73-5.13A23.12,23.12,0,0,0,90,42.59c0-4-.18-4.27-2.75-4.23a23.21,23.21,0,0,1-5.5-.75C79,36.82,79,36.87,79,41.42c0,3.28.57,5.19,2,6.61,2.4,2.37,7.53,2.62,8.39.38Zm.55-17.17c-.07-4.42-2-10.45-3.5-10.94-1-.34-7.2,11.31-6.37,12a64.65,64.65,0,0,0,9.18,2.54c.41.06.72-1.58.69-3.64Zm31.39,22.3c-8.4-1.28-8.87-2.52-5.4-14.13a143.75,143.75,0,0,1,4.85-13.8l2.16-4.82-5.67.75a57.84,57.84,0,0,1-8,.58c-3-.21-7.4-3.14-6.93-4.56.2-.61,5-2.12,10.73-3.36A98.46,98.46,0,0,0,130,8.92l6.56-3.07,2.3,2.68c2.93,3.4,2.64,4.1-3.66,9a37.87,37.87,0,0,0-7.14,7c-1.94,3-1.94,3,1.28,4.51s3.23,1.53,2.91,11C131.68,54.63,131.27,55.12,121.33,53.58Zm7.06-5.19c.33-.87.61-4.92.61-9,0-8.22-.76-9-5.37-5.35-3.59,2.83-3.63,6.4-.06,5.5,2.26-.57,2.53-.36,2.25,1.64-.23,1.65-1.09,2.38-3.07,2.61s-2.75.84-2.75,2.66c0,2.57,1.11,3.32,5.14,3.44C126.68,49.89,128,49.31,128.39,48.39Zm60,4.12a4.63,4.63,0,0,0-2.52-3.07c-2.43-.77-2.48-2.47-.06-2.47,1.63,0,1.75-.53,1.09-4.75a61.75,61.75,0,0,1,.15-12.75c.5-4.4.9-12.61.91-18.25C188,1.68,188.1,1,190,1c3.54,0,5.36,4.23,4.18,9.71-2.69,12.61-3.33,25.53-1.65,33.65.89,4.33,1.38,8.49,1.09,9.25-.91,2.38-4.49,1.64-5.17-1.07Zm99.15,1.7c-.35-.35-.32-3.35,0-6.68l.68-6.06-4,3.69c-5.33,4.8-8.17,6.31-9.46,5a1.53,1.53,0,0,1,1.61-2.58c1.56.6,12.26-10.66,18.29-19.26,3.11-4.45,3.92-6.32,3.17-7.4s-1.13-1.13-1.51-.22C295.32,23.28,288.56,33,287.81,33c-3.78,0,6.65-14.19,12.44-16.92l4.28-2-4,.59c-5.54.82-10.5,3-10.5,4.57a8.46,8.46,0,0,1-1.56,3.55c-1.26,1.8-1.94,2-3.5,1.19-3.13-1.67-2.47-6.49,1.64-12.09S292,5.79,292,9.62c0,2.47.22,2.6,3.68,2a44.83,44.83,0,0,0,9.94-3.8c5.34-2.74,6.49-3,7.87-1.87s1.08,1.88-3.44,6.46c-2.78,2.81-5,5.53-5,6s-1.44,2.4-3.19,4.21-3,3.46-2.75,3.68,4.26,2.44,8.94,4.94c6.15,3.29,9.23,4.4,11.16,4,2.11-.42,3,0,4.45,2.2,1.75,2.67,1.74,2.77-.55,4.62s-6.17,1.83-11.88-.29c-2.47-.92-5,0-7.13,2.57-1.06,1.28-1,1.65.33,2.17,4.17,1.6.85,5.13-5.66,6l-4.58.63,1.32-3.83a15.09,15.09,0,0,1,3.93-5.92c3.62-2.89,3.46-4.7-.3-3.38-2.92,1-4.25,3.25-5.84,9.78-.78,3.22-4.2,5.82-5.68,4.34ZM296.73,39a33.36,33.36,0,0,1,4.59-2l2.85-1-3.35-3.9c-1.85-2.15-3.68-3.94-4.08-4-1.39-.16-4.88,8-4.26,10,.73,2.16,1.79,2.38,4.28.92Zm79.63,12.44c-.54-2.16.14-3.29,4.38-7.25,5.23-4.88,9.67-11.41,8.55-12.54A6.54,6.54,0,0,0,386,31a6.86,6.86,0,0,1-4.44-2c-1.73-1.91-1.63-2,4.34-3.75l6.11-1.8V15.24c0-4.83-.41-8.25-1-8.25-2,0-1-1.69,1.66-2.89,2.43-1.11,2.89-1,5,1.58,1.5,1.82,2.15,3.61,1.82,5.06-.28,1.24-.79,4.27-1.13,6.74L397.7,22l4.72-1.61c3.64-1.24,5.26-1.35,7.13-.5,5,2.27,1.35,6.32-8.72,9.68-4.39,1.46-4.74,1.86-6.85,7.75-1.7,4.73-3.54,7.46-7.71,11.46-6.12,5.85-8.92,6.61-9.91,2.69Zm33.45,0a24.73,24.73,0,0,1-6.73-5.07c-1.91-2.42-4.48-9.37-3.75-10.11.46-.46,19.81,9.73,21.9,11.52,1.68,1.44,1.66,1.63-.42,3.85-2.72,3-5.08,3-11-.13ZM337.72,50c-1.52-1.2-2.75-2.53-2.75-3s3.36-.56,7.47-.3c7.43.48,7.48.46,10.9-3,3.23-3.23,6.63-11.43,6.63-16,0-2.24-3.72-3.28-9.13-2.55s-5.86-.94-2.54-7.33l2.57-5h-2.7c-3.09,0-7.17-2.48-7.17-4.36,0-1.19,12-5.64,15.16-5.64a5.62,5.62,0,0,1,3.26,1.92c2.09,2.31,1.34,4.16-4.6,11.33l-3.94,4.75h4.62c7.69,0,8.85,1.15,8.07,8-.87,7.75-4,18.84-5.84,20.68-.94.93-4.35,1.66-9.36,2-7,.69-8.16.51-10.62-1.44ZM325,47.12a16.56,16.56,0,0,1,2.6-4.25c4.26-5.62,8.12-14.57,8.92-20.7l.75-5.74,1.46,3.47c1.78,4.27,1.23,8.12-2.23,15.43C332.85,43,325,51.07,325,47.12Zm-168.9-4.06c-2.45-2.45-2.63-4.36-.58-6.07,1.82-1.5,4.8-11,6.45-20.5,1.68-9.69,1.79-10,3.48-8.56s3.52,8.78,3.65,14.06c.12,4.39-6.31,20-9,21.82-1.7,1.15-2.25,1-4-.75Zm18.2-2.32c-3.11-3.93-3.27-5.58-1.65-16.94.89-6.22,1.68-12.2,1.76-13.3.18-2.66,2.85-3,5-.69,1.57,1.74,1.62,3.11.55,16.29-1.21,15-2.57,18.52-5.64,14.64ZM308,25.11a4.61,4.61,0,0,1,1.5-3.12c1.22-1,1.5-1,1.5.3,0,2.27-1.09,4.7-2.11,4.7-.51,0-.91-.84-.91-1.88ZM5.62,16.87c-.35-1.76-.42-3.42-.16-3.68,1-1,3.62,2.22,3.33,4.13C8.27,20.58,6.27,20.32,5.62,16.87ZM297.27,6.58c2.35-1.79,2.25-2.09-1.5-4.49L292.52,0h5.75C303.84,0,308,2.07,308,4.88c0,1.26-5.67,3.11-9.4,3.07C295.8,7.93,295.67,7.79,297.27,6.58Z" fill="#979997"/></g></g></g></g></g></svg>