<svg xmlns="http://www.w3.org/2000/svg" viewBox="0 0 485 149"><g id="图层_2" data-name="图层 2"><g id="图层_1-2" data-name="图层 1"><path d="M75.39,99.09H72.61V68c-.19-2-.56-3.82-3.34-4-1.86,0-3.53,1.27-3.53,4q-.27,13.91-.55,27.82C65,101.45,67.78,106,73.91,106c6.31,0,9.09-4.55,8.9-10.18-.18-9.28-.37-18.55-.74-27.82,0-2.73-1.48-4-3.52-4-2.79.18-3.16,2-3.16,4Z" fill="#b92917" fill-rule="evenodd"/><path d="M17.33,49.61c-.18.19-.71-.18-1.25,0a4.24,4.24,0,0,0-.9.92c-.18.36,0,1.28,1.08,2a11.47,11.47,0,0,0,5.2,1.28c.72-.18,1.26-1.65.72-1.65-.72-.18-2.15-.55-2.51-1.28a6.33,6.33,0,0,1-1.08-4.56,6.74,6.74,0,0,1,1.26-4.39.72.72,0,0,1,.89.37c.18.18.9,2.37,1.08,2.55,0,0,0,.74-.54.37-.36-.18-.9-.37-1.25,0-.54.18-.9.73-.36,1.28a1.55,1.55,0,0,0,1.43.37c.18-.19.9-.37.72,0a6.33,6.33,0,0,0-.18,1.64s-.54.73,0,1.09,1.44.37,1.44,0V47.42a7,7,0,0,1,.71-2c.54-.18.9,0,1.62-.36a4.74,4.74,0,0,0,1.44-2.38,20.32,20.32,0,0,1,.89-4.56c.36-.55,1.26-.92.36-1.83s-4.48-1.28-6.28.18a12.91,12.91,0,0,0-3.95,5.85c-.9,2.55-1.07,4-.72,5.3.36,1.46.54,1.82.18,2Zm5.57-4.75s-.18,0-.36.37V42.12c0-.91-.72-.91-1.26-.73H20.21c.35-.73.71-1.28,1.25-2.19A4.15,4.15,0,0,1,24.69,37c.72-.18.36,2.38.18,3.1a17,17,0,0,1-.18,3.11c0,.55-.36.37-1.07.55C23.08,44,22.9,44.86,22.9,44.86Z" fill="#b92917" fill-rule="evenodd"/><path d="M45.67,17.35c-.5.18-.67.53-.34,1.42.5.7,1,.52,1.34,2.11.5,1.41,1.33,4.41,1.5,4.94a7.29,7.29,0,0,1,.16,1.77c0,.35.17,1.41.84,1.23.83-.17.5-1.05.33-1.59a27.66,27.66,0,0,0-1.33-4.94c-.17-.52-.67-2.11-.84-2.64a2,2,0,0,0-.5-1.59C46.5,17.71,46.17,17,45.67,17.35Z" fill="#b92917" fill-rule="evenodd"/><path d="M49.57,16.18c-.28.18-.57.18-.57.72a4,4,0,0,0,.57,1.43,4.83,4.83,0,0,1,.72,1.08,11.12,11.12,0,0,0,1.14,3.41c.28.18.57-.36.57-1.08a6.57,6.57,0,0,0-.29-2,1.59,1.59,0,0,1-.42-1.26,4.45,4.45,0,0,0-.72-2A.92.92,0,0,0,49.57,16.18Z" fill="#b92917" fill-rule="evenodd"/><path d="M52.19,10a1.21,1.21,0,0,0-1,.53,1,1,0,0,0,.51,1.23,3.52,3.52,0,0,1,.68,1.4c.17.36,1.7,3.87,2,4.75s1,2.81,1.54,3.87c.51,1.23,1.36,3.34,2,3.87.68.35,1-.88.51-1.41-.34-.53-.34-.35-1-1.4C57,21.78,54.57,16,54.4,15.63a17,17,0,0,1-.68-2.82c0-.7.34-1.4,0-1.93C53.55,10.35,52.36,10,52.19,10Z" fill="#b92917" fill-rule="evenodd"/><path d="M99,24.94c.14.88.43,3.71,1.71,3.88s1.29-1.59,1-2.11a24.07,24.07,0,0,0-1.85-2.83C99.14,23,99,24.23,99,24.94Z" fill="#b92917" fill-rule="evenodd"/><path d="M133,44.19l-.55.57c0,.19-.36.76-.54.76s-1.26.38-1.62.38c-.19,0-1.09.19-1.09.38a2.51,2.51,0,0,1-.72.75s0,.38.36.38.36.38.36.38,0,.76-.18.57-.18,0-.54-.38l-2.35-2.46s-.54-.76-.72-1a.59.59,0,0,0-.55-.57,1,1,0,0,0-.9.57,2.44,2.44,0,0,0,.36,1.33,12,12,0,0,0,2,1.32,11.68,11.68,0,0,1,2.17,1.9A29.88,29.88,0,0,1,130.69,52c.18.75,0,.94-.36.94a2.33,2.33,0,0,1-.91-.57.25.25,0,0,0-.36,0s0,.19.54.95c.36.57.54,1.52.91,1.71.18,0,1.62-1,1.26-1.9a5.51,5.51,0,0,0-.9-2.08c-.18-.19,0-.57.36-.38a3.3,3.3,0,0,0,1.63.57c.72,0,.9.19,1.08,0a2.91,2.91,0,0,0,.72-1.14c.18-.19.54-.19.91.19.36.57.9,1,1.26.57.18-.57-.18-1.14.18-1.14.36-.19.54-.57.72-.19.19.19.37.57.55.38,0-.19.36-.38.54-.76s0-.95-.18-.95c-.36.19-.91.19-1.09.38a.71.71,0,0,0-.72.38c-.18.19-.18.19-.36.19s-.54.19-.72-.19c-.36-.19-.36-.57-.73-.57-.18,0-.9.19-.9.38-.18.19.18.57-.36.57s-2-.19-2.17,0c-.18,0,0,.38-.18.57-.36,0-.72.38-.9.19l-.73-.76s-.36-.57.36-.57c.55,0,1.45-.19,1.63-.19s.54,0,.54-.19c-.18-.38.36-.19.18-.57-.18-.19-.36-.38,0-.38.55-.19,2,0,2.9-.19.72-.19.72-.56.9-.75a1.19,1.19,0,0,0-.9-.95c-.19.19-.55.76-.91.95-.36,0-1.62.37-1.62.56-.19,0-1.09.19-1.27.19s-1.08-.75-.36-.75a14.2,14.2,0,0,0,2-.57c.36-.38.72-1.33.54-1.52C133.76,44.19,133.22,44,133,44.19Z" fill="#b92917" fill-rule="evenodd"/><path d="M126.61,48.92c-.37.18-.73.55-.55.74,0,.37.74.55.74.92.18.55-.92.74-1.29.74A14.58,14.58,0,0,1,124,49.66c-.18-.19-.55-1.66-1.1-1.29a1.37,1.37,0,0,0-.55,1.47c.37.37.73.56,1.28,1.11.37.37.92.92.92,1.1s-.37.55-.73.74a3.78,3.78,0,0,1-2,0,3.32,3.32,0,0,1-.37-1.29c.18-.55.18-1.47-.37-1.1-.37.18-.18.55-.55.92a1.11,1.11,0,0,0-.18,1.47,3.07,3.07,0,0,0,2.2.74,9.69,9.69,0,0,0,1.65-.19c.37,0,.92-.37.92,0,0,.19.19,1.66.74,1.48.55,0,1.28-.37,1.1-.74a4.75,4.75,0,0,0-.74-1.66s0-.74.19-.74c.37.19.92.19,1.28.37.37,0,1.29-.37,1.11-.73a16.85,16.85,0,0,0-1.29-1.85C127.35,49.1,127,48.74,126.61,48.92Z" fill="#b92917" fill-rule="evenodd"/><path d="M100.82,15.47a11.91,11.91,0,0,0-1.27,1.94h-.19c-.36,0-1.63,0-2-.35-.54-.18-1.27-.71-1.45-.71-.36-.17-.73,0-.91.53a1.52,1.52,0,0,0,.55,1.77c.72.88.9.7,1.63.53.37,0,.73-.18,1.09-.18a3,3,0,0,0-.54.71,26.68,26.68,0,0,1-2.18,2.11L93,23.06c.18.17-.36.17-.36-.35-.19-.53-.55-.18-1.09.17s-.19,1.06-.19,1.41c-.18.36-.18.71.73.53a11.31,11.31,0,0,0,2.36-1.41,10.85,10.85,0,0,0,3.1-1.76,20.05,20.05,0,0,0,2.18-2.83h2.72c.37,0,.73.36,1.28.18.54,0,1.27-.18.91-.71s-.73-1.06-1.28-.88a5.62,5.62,0,0,1-1.63.18,2.45,2.45,0,0,1-.91-.18c.18-.35.54-.7.54-.88l.73-.71a1.41,1.41,0,0,0,.91-.88,2.33,2.33,0,0,0-.18-1.59.81.81,0,0,0-1.27.36C101.18,14.23,101,15.47,100.82,15.47Z" fill="#b92917" fill-rule="evenodd"/><path d="M74,39h-.74c-.19-1.29-.93-2.94-2.59-2.94H67.33A3.13,3.13,0,0,1,64.74,35c.37,1.65.93,3.3,2.78,3.67h2.41a3.8,3.8,0,0,1,2.4.55c-3.14.18-6.11,1.28-7,4-.93,2.56-.56,8.62-1.11,11.55H60.11c-3.33-.18-4.44,2.76-4.63,6.24-.55,10.28-1.29,20.37-1.85,30.64-.37,7.89-2,11.56-4.63,14.31h5.56c.92-.73,1.48-1.65,2.77-3.67A14.62,14.62,0,0,1,55.85,106h4.82A14.07,14.07,0,0,0,62,99.76c.56-11.37,1.11-22.75,1.48-34.12.19-1.84.75-2.94,2.23-2.94h7.4v-15a4.14,4.14,0,0,1-3.14-3.85A3.94,3.94,0,0,1,74,40a3.78,3.78,0,0,1,3.89,3.86,3.94,3.94,0,0,1-3.15,3.85v15h7.59c1.48,0,2,1.1,2,2.94Q85.21,82.7,86,99.76A14.07,14.07,0,0,0,87.33,106h4.82a14.11,14.11,0,0,1-1.67-3.67A35.26,35.26,0,0,0,93.26,106H99c-2.59-2.75-4.26-6.42-4.81-14.31-.38-10.27-1.12-20.36-1.67-30.64-.19-3.48-1.3-6.42-4.82-6.24H83.81c-.55-2.93-.37-9-1.11-11.55-1.11-2.76-3.89-3.86-7-4a3.47,3.47,0,0,1,2.4-.55h2.41c1.85-.37,2.41-2,2.59-3.67a2.89,2.89,0,0,1-2.59,1.1H77.33c-1.66,0-2.4,1.65-2.59,2.94Z" fill="#b92917" fill-rule="evenodd"/><path d="M73.91,0C114.7,0,148,33.52,148,74.41,148,115.48,114.7,149,73.91,149S0,115.48,0,74.41C0,33.52,33.11,0,73.91,0Zm0,2.58C34.58,2.58,2.56,34.81,2.56,74.41s32,72,71.35,72,71.53-32.41,71.53-72S113.24,2.58,73.91,2.58Z" fill="#b92917" fill-rule="evenodd"/><path d="M9,72.11h3.49v.37a4.36,4.36,0,0,0-2,1.12,3.59,3.59,0,0,0-.74,2.22,2.18,2.18,0,0,0,.37,1.3,1,1,0,0,0,.92.56c.55,0,1.29-.74,1.84-2.41h0c.18-.19.18-.19.18-.37a5.66,5.66,0,0,1,1.47-2.23.93.93,0,0,1,.73-.37c.19-.19.37-.19.74-.19a3,3,0,0,1,2.2.93,4,4,0,0,1,.92,2.6,7.93,7.93,0,0,1-.37,1.85,6.78,6.78,0,0,1-.37.93c0,.18.19.18.19.37h.55v.37L16,79.35V79a3.82,3.82,0,0,0,1.83-1.12,3.71,3.71,0,0,0,.55-2A1.38,1.38,0,0,0,18,74.71a1,1,0,0,0-.74-.37c-.55,0-1.1.56-1.47,1.85l-.18.19c-.37.74-.55,1.48-.73,1.85-.19.19-.37.56-.56.75-.36.18-.55.37-.91.55a2.27,2.27,0,0,1-1.1.19,2.48,2.48,0,0,1-2.21-.93,3.26,3.26,0,0,1-.92-2.6,8.18,8.18,0,0,1,.19-2,8,8,0,0,1,.36-.92c0-.19-.18-.38-.18-.56H9Zm3.31,15.21a3.88,3.88,0,0,0-.92.56,1.38,1.38,0,0,0-.19.93h-.36l-.92-5.2.37-.18c.18.55.18.74.55.92.18.19.55.19,1.1.19l5.87-1.11c.37-.19.74-.19.92-.56.19-.18.19-.55.19-.93h.36l.92,5.38h-.37a.85.85,0,0,0-.55-.92.8.8,0,0,0-.92,0Zm4.22,13a4.36,4.36,0,0,1-2-1.12,4.8,4.8,0,0,1-1.29-2A3.43,3.43,0,0,1,13,95.3a5.29,5.29,0,0,1,.37-1.67A5.72,5.72,0,0,1,14.69,92,5.79,5.79,0,0,1,16.53,91a4.64,4.64,0,0,1,3.85.19,4.89,4.89,0,0,1,2.39,3A5.84,5.84,0,0,1,23,96V97c0,.18.19.18.19.18a.66.66,0,0,0,.55.19v.37l-2.75.93-.19-.37a3.75,3.75,0,0,0,1.47-1.49,2.63,2.63,0,0,0,0-1.67,2,2,0,0,0-1.47-1.48,6.45,6.45,0,0,0-3.12.37,7.29,7.29,0,0,0-2.94,1.48,2.06,2.06,0,0,0-.37,2.23,2.91,2.91,0,0,0,.92,1.3,3.64,3.64,0,0,0,1.47.74ZM20,106.8l2.38-1.48,1.47,2.41-2.38,1.67a2.05,2.05,0,0,1-.92.18c-.37,0-.55-.18-.74-.56l-.36.19,2.75,4.64.37-.19a1.23,1.23,0,0,1-.19-1.11c0-.19.37-.37.74-.74l5.14-3.16a1.18,1.18,0,0,1,.92-.37c.36,0,.55.19.73.56l.37-.19-2.75-4.45-.37.19c.18.37.37.55.18.93,0,.18-.37.55-.73.74l-2,1.29L23,104.94l2.21-1.29a1.16,1.16,0,0,1,.92-.38c.36,0,.55.19.91.56l.19-.18-2.76-4.46-.36.19c.18.37.36.74.18.93,0,.18-.18.55-.73.74l-5,3.34c-.55.18-.92.37-1.1.18-.37,0-.55-.18-.74-.55l-.37.18,2.94,4.64.19-.19a2.29,2.29,0,0,1-.19-1.11c0-.19.37-.37.74-.74Zm12.67,13.35,3.12-3a1.68,1.68,0,0,0,.55-.92c.18-.37,0-.56-.37-.93l.37-.18,2,2.22-.19.19a1.61,1.61,0,0,0-.91-.56c-.37,0-.55.18-.92.56l-3.12,3a4.07,4.07,0,0,1-1.29.93,2.52,2.52,0,0,1-1.1.37,4.19,4.19,0,0,1-1.47-.37,5,5,0,0,1-1.47-1.3,3.49,3.49,0,0,1-1.28-2.59,2.91,2.91,0,0,1,1.28-2.41L31.22,112a3.59,3.59,0,0,1,.55-.92,1.73,1.73,0,0,0-.55-.93l.36-.19,3.68,3.9-.37.18a1.41,1.41,0,0,0-.73-.37,1.61,1.61,0,0,0-1.11.56l-3.67,3.52a1.93,1.93,0,0,0-.92,1.3,2.49,2.49,0,0,0,.55,1.48,2.25,2.25,0,0,0,1.66.75,5.62,5.62,0,0,0,2-1.12ZM35.81,125l1.28-.75,2,1.49-.55,1.67c0,.18,0,.18-.18.18v.19c-.19.18-.37.37-.37.37-.18-.19-.55-.19-.92-.56l-.18.37,4,2.79.18-.19-.36-.37a1.12,1.12,0,0,1,.18-.74l2.2-8.72-.92-.74-7.34,4.82c-.37.19-.55.19-.73.37-.37,0-.56-.18-.74-.18l-.18.18,2.38,1.67.19-.18-.19-.19c-.18-.19-.36-.37-.36-.56-.19-.18,0-.37,0-.55.18,0,.18,0,.18-.19.18,0,.18,0,.37-.18Zm1.83-1.12L40,122.19,39.11,125Zm10.47,1.67a2.4,2.4,0,0,0,.18-1.11,2.43,2.43,0,0,0-.73-.56l.18-.37,3.49,1.67L52.88,132l1.66-3.34c.18-.55.36-.92.18-1.11,0-.18-.18-.55-.73-.74l.18-.37,2.75,1.3-.18.37a.8.8,0,0,0-.92,0c-.18,0-.55.37-.73.74l-3.12,7-1.11-.37-2.38-9.46-2.39,5.19c-.18.56-.37.93-.18,1.12,0,.18.36.55.73.74l-.18.37L43.7,132l.19-.18a.84.84,0,0,0,.92,0c.18,0,.55-.37.73-.74Zm23.32,10.76L71.8,132c0-.55,0-.92-.19-1.11a1.08,1.08,0,0,0-.92-.37l.19-.37,2.94.18v.38A1.26,1.26,0,0,0,72.53,132l-.37,4.27A12.18,12.18,0,0,1,71.8,138c-.19.37-.37.56-.55.93a3.78,3.78,0,0,1-1.47.74,5.77,5.77,0,0,1-1.84.18,4.72,4.72,0,0,1-2.75-1.11,4.51,4.51,0,0,1-.74-2.78l.37-4.45a1.08,1.08,0,0,0-.18-1.12c0-.18-.37-.37-.74-.37v-.37l5.33.37v.37a1.56,1.56,0,0,0-1.11.38c-.18.18-.18.37-.36.92l-.37,5.2c0,.74,0,1.3.37,1.67.18.37.55.55,1.28.55a2.21,2.21,0,0,0,1.65-.55,3.55,3.55,0,0,0,.74-2.23ZM76.57,132a1.36,1.36,0,0,0-.37-.92c-.18-.19-.55-.19-.91-.19l-.19-.37,4-.56,5.14,4.83-.55-3.71a1.07,1.07,0,0,0-.37-.93,1.36,1.36,0,0,0-.91-.37l-.19-.19,3.12-.55v.37c-.36.18-.73.18-.91.55a.82.82,0,0,0,0,.93l.91,7.79-.91.19-7.17-6.68L78,138c.18.56.18.93.55,1.11.18.19.37.19.92.19v.37l-2.94.37-.18-.37a1.07,1.07,0,0,0,.91-.37,2.29,2.29,0,0,0,.19-1.11Zm17.08,3a1.92,1.92,0,0,0,.55.93,1.4,1.4,0,0,0,.92.18l.18.19-5.14,1.48-.19-.18a1.28,1.28,0,0,0,.92-.74v-.93L89.06,130a1,1,0,0,0-.55-.92.8.8,0,0,0-.92,0v-.38l5.14-1.48v.37c-.37.19-.74.37-.74.56q-.27.27,0,1.11Zm8.63-1.48.55-.19-.74-9.09v-.92l.55-.56-.18-.37-2.57,1.48.18.19c.37,0,.55-.19.74-.19s.37.19.55.37v.56l.55,4.82-3.86-3.34-.18-.18s0-.19-.18-.19v-.37c.18-.18.36-.37.55-.37v-.37L93.83,127l.18.37c.19-.19.37-.19.74-.19a2.56,2.56,0,0,0,.73.56Zm7.16-3.9-.19-.18a1.7,1.7,0,0,0,.55-.93,2,2,0,0,0-.36-.93l-3.86-4.82c-.37-.37-.55-.56-.92-.56-.18-.18-.55,0-.91.19l-.19-.19L110,117l1.65,1.85-.18.38a2.23,2.23,0,0,0-1.66-.75c-.36-.18-.91.19-1.65.75l-.92.74,2.21,3,.18-.18a1,1,0,0,0,.55-.93,2.47,2.47,0,0,0-.55-1.48L110,120l2.75,3.71-.18.18c-.55-.55-.92-.93-1.29-.93a1.51,1.51,0,0,0-1.28.38v.18l1.83,2.23c.19.37.37.55.56.55a1.63,1.63,0,0,0,.91-.55,2.73,2.73,0,0,0,.92-3.9l.37-.18,1.47,2.59Zm8.81-14.28.19-.18a2.08,2.08,0,0,0,.55-1.3,2.91,2.91,0,0,0-.92-1.3,2.16,2.16,0,0,0-1.47-.74c-.55,0-.92.37-1.29.92Zm2.57,2-2-1.67.19-.18,4.77.92,2.2-2.78-.18-.18c-.18.18-.37.37-.55.37h-.92l-3.67-.75a5.26,5.26,0,0,0,.18-1.67,2.14,2.14,0,0,0-.92-1.29,1.66,1.66,0,0,0-2-.37,5.6,5.6,0,0,0-2.38,1.66l-3.31,4.09.19.18a3.17,3.17,0,0,1,.91-.37,1.18,1.18,0,0,1,.92.37l4.59,3.9c.37.37.74.74.74.92,0,.38-.19.56-.37.93l.18.19,3.49-4.08-.18-.38c-.37.38-.55.56-.92.56-.18.19-.55,0-.92-.37Zm7.71-6.49-3.12-1.67.19-.37A3.42,3.42,0,0,0,128,109a3.58,3.58,0,0,0,1.66-1.67,1.78,1.78,0,0,0,.36-1.29,1,1,0,0,0-.55-.93c-.55-.19-1.47.19-2.75,1.11h-.19c0,.19-.18.19-.36.37a4.08,4.08,0,0,1-2.21,1.12.56.56,0,0,1-.73,0c-.37,0-.55,0-.74-.19a2.85,2.85,0,0,1-1.46-2,3.54,3.54,0,0,1,.55-2.6,2.53,2.53,0,0,1,1.1-1.3l.73-.74c.19-.18.19-.37,0-.37,0-.18-.18-.18-.36-.37l.18-.37,2.75,1.48-.18.37a2,2,0,0,0-2,0,2.63,2.63,0,0,0-1.65,1.49,2.29,2.29,0,0,0-.19,1.11c0,.37.19.56.55.74s1.11,0,2.21-.74V104a12.31,12.31,0,0,1,1.65-1.12c.37-.37.73-.37.92-.55h1.1a2.52,2.52,0,0,1,1.1.37,2.84,2.84,0,0,1,1.47,2,4.21,4.21,0,0,1-.55,2.78c-.37.37-.73.93-1.29,1.48-.36.38-.73.75-.73.75v.37a.4.4,0,0,0,.37.37Zm5-14.65L127.8,94a1.88,1.88,0,0,1-.92-.56v-.92l-.18-.19-2,5,.37.18c.18-.37.36-.74.55-.74a1.19,1.19,0,0,1,1.1,0L132.39,99a3.76,3.76,0,0,1,.92.56,2.31,2.31,0,0,1-.19,1.11l.37.18,2-5.19h-.37a1.39,1.39,0,0,1-.73.74,2.05,2.05,0,0,1-.92-.18Zm-4-14.66,2.39.56-.18.37a3.44,3.44,0,0,0-1.47.19c-.37.18-.55.74-.74,1.29l-.18.56,7,1.67c.55.19.91.19,1.1,0a2.09,2.09,0,0,0,.55-.93l.37.19L137,90.66h-.37c.19-.56.19-.74,0-1.11a1.36,1.36,0,0,0-.92-.37l-7-1.67-.19.56a1.83,1.83,0,0,0,.19,1.48,1.9,1.9,0,0,0,1.1.93v.37l-2.39-.56Zm5.14-7.42,2.76.19a1.25,1.25,0,0,0,1.28-1.3H139v5.38h-.37a1.46,1.46,0,0,0-.36-.93c-.19-.18-.56-.18-1.11-.18l-2-.19-4.4,2.41a2.63,2.63,0,0,0-.74.56c-.18.18-.18.37-.18.74h-.37v-5h.37a.7.7,0,0,0,.18.56l.19.19h.18l.18-.19L134,74.71l-3.12-1.86h-.18c-.19-.18-.19-.18-.37-.18s-.18.18-.37.37v.74h-.36V71H130v.19a.58.58,0,0,0,.19.37c0,.18.18.37.55.55Z" fill="#b92917" fill-rule="evenodd"/><path d="M61,119.82v-.36a3.29,3.29,0,0,0,1.49-.18c.19,0,.19-.18.19-.36v-4.13a.62.62,0,0,0-.19-.53h-1.3v-.36c.56-.18,1.12-.18,1.49-.36a2.53,2.53,0,0,0,1.49-.54h.38v5.92a.39.39,0,0,0,.37.36c.19.18.56.18,1.31.18v.36H61Zm9.52-3c-.37.18-.56.36-.93.54a1.3,1.3,0,0,0-.19.72c0,.53.19.71.56,1.07a2.77,2.77,0,0,0,1.31.36,1.41,1.41,0,0,0,1.12-.36.94.94,0,0,0,.37-.71c0-.36-.19-.54-.56-.9-.37-.18-.93-.36-1.68-.72Zm.93-1.08a2.55,2.55,0,0,0,.75-.54c.19-.18.19-.36.19-.71a1.34,1.34,0,0,0-.38-.72,2.08,2.08,0,0,0-1.12-.18,1.72,1.72,0,0,0-.93.18c-.19.18-.37.36-.37.54,0,.35.18.53.56.71.18.36.74.54,1.3.72Zm-1.68.72a2.9,2.9,0,0,1-1.12-.72,1,1,0,0,1-.37-.9,1.35,1.35,0,0,1,.75-1.25,4.08,4.08,0,0,1,2.24-.54,3.23,3.23,0,0,1,1.86.54,1.2,1.2,0,0,1,.75.9c0,.35-.19.53-.37.89a10.34,10.34,0,0,0-1.31.72,5.42,5.42,0,0,1,1.49.72,1.59,1.59,0,0,1,.56,1.26,1.82,1.82,0,0,1-.93,1.43,4.1,4.1,0,0,1-2.24.54,4.37,4.37,0,0,1-2.43-.54c-.56-.36-.93-.72-.93-1.25a1.55,1.55,0,0,1,.56-1.08,3.67,3.67,0,0,1,1.49-.72Zm5.6,3,.56-.54c.19.18.38.36.56.36.38,0,.56.18.75.18a2.63,2.63,0,0,0,1.87-.9,3.12,3.12,0,0,0,.56-2h0a2.21,2.21,0,0,1-.94.9,2.82,2.82,0,0,1-1.3.18,3.09,3.09,0,0,1-1.68-.54,2,2,0,0,1-.56-1.44,2.82,2.82,0,0,1,.93-2,4.11,4.11,0,0,1,2.24-.72,3.15,3.15,0,0,1,2.24.9,2.9,2.9,0,0,1,.93,2.15,5,5,0,0,1-.37,1.62,2.82,2.82,0,0,1-.75,1.25c-.56.36-.93.54-1.49.9a4.79,4.79,0,0,1-1.68.18,2.45,2.45,0,0,1-1.12-.18,1.45,1.45,0,0,1-.75-.36Zm3-2.69c.37,0,.75,0,.93-.36a1.34,1.34,0,0,0,.38-.9,3.21,3.21,0,0,0-.38-1.43,1.62,1.62,0,0,0-1.12-.54,1,1,0,0,0-.93.54c-.19.18-.19.53-.19,1.07a2.5,2.5,0,0,0,.38,1.26c.18.36.56.36.93.36Zm7.47-.54c-.38,0-.56.18-.94.36a1.35,1.35,0,0,0-.18.9c0,.72,0,1.07.37,1.43a1,1,0,0,0,.93.54,1.47,1.47,0,0,0,.94-.36c.18-.18.18-.54.18-1.07s0-1.08-.18-1.26a1.36,1.36,0,0,0-1.12-.54ZM89,113.72l-.75.36a.69.69,0,0,0-.56-.18c-.18-.18-.37-.18-.74-.18a1.84,1.84,0,0,0-1.68.72,2.62,2.62,0,0,0-.75,2h0a1.87,1.87,0,0,1,.93-.72,2.81,2.81,0,0,1,1.31-.36,2.32,2.32,0,0,1,1.68.54,2.17,2.17,0,0,1,.56,1.62,2.25,2.25,0,0,1-.75,1.79A3,3,0,0,1,86,120a3.23,3.23,0,0,1-2.42-.72,3.34,3.34,0,0,1-.94-2.33,5,5,0,0,1,.38-1.62,4.48,4.48,0,0,1,.93-1.07,3.34,3.34,0,0,1,1.31-.9A5.62,5.62,0,0,1,87,113c.37,0,.74.18,1.12.18C88.44,113.36,88.63,113.54,89,113.72Z" fill="#b92917" fill-rule="evenodd"/><path d="M74,26c27.08,0,49,21.84,49,48.41A48.52,48.52,0,0,1,97.76,117l-1.1-2A46.06,46.06,0,0,0,121,74.41c0-25.48-21-46.23-47-46.23-25.79,0-47,20.75-47,46.23a46.27,46.27,0,0,0,24.5,40.77L50.61,117A48.29,48.29,0,0,1,25,74.41C25,47.84,47.11,26,74,26Z" fill="#b92917" fill-rule="evenodd"/><path d="M173.18,123.42H175a5.92,5.92,0,0,0,.91,3.57,3.4,3.4,0,0,0,2.94,1.32,3.86,3.86,0,0,0,2.2-.76,2.22,2.22,0,0,0,.91-2.07,3.08,3.08,0,0,0-.55-1.69,8.46,8.46,0,0,0-2.75-1.5c-2-.94-3.48-1.7-4.21-2.64a4.78,4.78,0,0,1-1.1-3.19,4.91,4.91,0,0,1,1.65-3.95,5.57,5.57,0,0,1,4.21-1.51,10.93,10.93,0,0,1,2.39.19,19.69,19.69,0,0,1,2.75.37v4.9H182.9a3.92,3.92,0,0,0-.92-3,3.1,3.1,0,0,0-2.38-.94,2.89,2.89,0,0,0-2,.56,2.44,2.44,0,0,0-.73,1.88,3,3,0,0,0,.55,1.69,8.54,8.54,0,0,0,2.75,1.51c.18,0,.37.19.73.38a9.21,9.21,0,0,1,3.12,1.69,3.35,3.35,0,0,1,1.1,1.69,3.84,3.84,0,0,1,.55,2.07,5.88,5.88,0,0,1-1.83,4.33,6.45,6.45,0,0,1-4.77,1.69,15.67,15.67,0,0,1-3.12-.38,9.18,9.18,0,0,1-2.93-1.13,6,6,0,0,0,.18-1.88v-3.19Zm15.77,6.2v-1.13h.18a3,3,0,0,0,1.65-.37,4.18,4.18,0,0,0,.37-1.88V114a1.44,1.44,0,0,0-1.84-1.69H189v-.94h2.2a8.3,8.3,0,0,0,2,.18,9,9,0,0,0,2.2-.18h2v.94a2.42,2.42,0,0,0-1.47.37c-.36.19-.55.57-.55,1.32v12.23a4.18,4.18,0,0,0,.37,1.88,3,3,0,0,0,1.65.37h0v1.13a7,7,0,0,0-2-.18h-4a11.43,11.43,0,0,0-2.38.18Zm27.31-17.87c0,.76-.18,1.32-.18,1.88v3.77h-1.47a6.46,6.46,0,0,0-1.28-3.77,3.86,3.86,0,0,0-2.75-1.31,4.59,4.59,0,0,0-4,2.07,9.49,9.49,0,0,0-1.47,5.45,9.11,9.11,0,0,0,1.65,5.83,4.56,4.56,0,0,0,4,2.26,4.15,4.15,0,0,0,2.57-.75,10,10,0,0,0,2.38-2.45l1.29.75a11.39,11.39,0,0,1-3.3,3.39,7.93,7.93,0,0,1-4.22,1.13,8.19,8.19,0,0,1-6.42-2.63c-1.65-1.7-2.38-4-2.38-7a9.36,9.36,0,0,1,2.57-6.78,9,9,0,0,1,7-2.63,29.36,29.36,0,0,1,5.5.75Zm3.3,17.87v-1.13h.19a2.3,2.3,0,0,0,1.46-.37c.37-.38.37-.94.37-1.88V114a1.62,1.62,0,0,0-.37-1.32,2.14,2.14,0,0,0-1.28-.37h-.37v-.94h1.65a10.69,10.69,0,0,0,2.57.18,9.85,9.85,0,0,0,2.38-.18h1.65v.94a2.42,2.42,0,0,0-1.47.37c-.36.19-.55.57-.55,1.32v5.08h7.52V114a1.49,1.49,0,0,0-.55-1.32,2.38,2.38,0,0,0-1.47-.37h-.18v-.94h2a8.34,8.34,0,0,0,2.2.18,7.71,7.71,0,0,0,2.2-.18h1.83v.94h-.18a1.6,1.6,0,0,0-1.84,1.69v12.23c0,.94.19,1.5.55,1.69.19.38.74.56,1.47.56v1.13a9.09,9.09,0,0,0-2.2-.18h-3.3a13.29,13.29,0,0,0-2.57.18v-1.13h0a3,3,0,0,0,1.65-.37,4,4,0,0,0,.37-1.88v-5.83h-7.52v5.83a4.18,4.18,0,0,0,.37,1.88,3,3,0,0,0,1.65.37h0v.95h-6.05a9.09,9.09,0,0,0-2.2.18ZM244.13,114a1.44,1.44,0,0,0-1.84-1.69h-.18v-.94a9.8,9.8,0,0,1,2.38.18h3.67a9.85,9.85,0,0,1,2.38-.18v.94a2.69,2.69,0,0,0-1.65.37c-.36.19-.55.57-.55,1.32v8.28c0,1.31.19,2.25.19,2.82a8.64,8.64,0,0,0,.55,1.32,9.74,9.74,0,0,0,1.46,1.12,6.64,6.64,0,0,0,2,.19,4.4,4.4,0,0,0,3.3-1.13c.73-.94.91-2.44.91-4.32v-7.9c0-.76,0-1.32-.36-1.7a2.69,2.69,0,0,0-1.65-.37v-.94h1.46c.37,0,.74.18,1.1.18s.92-.18,1.29-.18h1.28v.94a1.56,1.56,0,0,0-1.1.37,2.81,2.81,0,0,0-.37,1.7l-.18,8.27q0,4-1.65,5.65c-1.1,1.13-2.93,1.69-5.32,1.69a8.5,8.5,0,0,1-5.31-1.51,5.64,5.64,0,0,1-1.83-4.51Zm24.93,2.07-2.39,6.21h4.59Zm-4.22,10.72a.6.6,0,0,0-.18.38v.37c0,.57.55.76,1.83.94h0v1.13a4.13,4.13,0,0,0-1.47-.18h-2.2a7.72,7.72,0,0,0-1.83.18v-1.13a7.58,7.58,0,0,0,1.28-.56,6.41,6.41,0,0,0,1.1-1.69l6.42-14.86h1.65l5.68,15.8a2.06,2.06,0,0,0,.74.94,2.55,2.55,0,0,0,1.28.37v1.13a9.09,9.09,0,0,0-2.2-.18h-3.67a10.61,10.61,0,0,0-2.38.18v-1.13a10.2,10.2,0,0,0,1.65-.18c.37-.19.37-.38.37-.76V127l-1.29-3.39h-5.5ZM296.19,123V114.2c0-.75-.19-1.32-.55-1.51a3.46,3.46,0,0,0-1.84-.37v-.94h5.69v.94h-.19a2.14,2.14,0,0,0-1.28.37,3,3,0,0,0-.37,1.51v15.42H296l-11.18-14.86v11.48a4,4,0,0,0,.37,1.88,4.13,4.13,0,0,0,2,.37v1.13a5.17,5.17,0,0,0-1.65-.18h-2.93a3.59,3.59,0,0,0-1.46.18v-1.13a2.56,2.56,0,0,0,1.64-.37,2.53,2.53,0,0,0,.55-1.88v-12a1.89,1.89,0,0,0-.55-1.51c-.18-.18-.73-.18-1.46-.37v-.94h1.83c.37,0,.73.18,1.1.18s.92-.18,1.28-.18h1.65Zm20-9a1.44,1.44,0,0,0-1.84-1.69h-.18v-.94a7.68,7.68,0,0,1,2.2.18h3.85a9.09,9.09,0,0,1,2.2-.18v.94a2.42,2.42,0,0,0-1.47.37c-.36.19-.55.57-.55,1.32v8.28c0,1.31.19,2.25.19,2.82a8.64,8.64,0,0,0,.55,1.32,9.74,9.74,0,0,0,1.46,1.12,6.07,6.07,0,0,0,2,.19,4.37,4.37,0,0,0,3.3-1.13,8.84,8.84,0,0,0,.92-4.32v-7.9a3.9,3.9,0,0,0-.37-1.7,2.64,2.64,0,0,0-1.65-.37v-.94h1.47c.36,0,.73.18,1.1.18s.73-.18,1.28-.18h1.28v.94a1.58,1.58,0,0,0-1.1.37,2.84,2.84,0,0,0-.36,1.7l-.19,8.27q0,4-1.65,5.65c-1.1,1.13-2.93,1.69-5.31,1.69a8.15,8.15,0,0,1-5.32-1.51,5.64,5.64,0,0,1-1.83-4.51Zm33.36,9V114.2a2.46,2.46,0,0,0-.37-1.51,4.25,4.25,0,0,0-2-.37v-.94h5.68v.94h-.18a2.73,2.73,0,0,0-1.29.37,3.06,3.06,0,0,0-.36,1.51v15.42h-1.47l-11.36-14.86v11.48a2.53,2.53,0,0,0,.55,1.88,3.3,3.3,0,0,0,1.83.37v1.13a5.17,5.17,0,0,0-1.65-.18H336a4.13,4.13,0,0,0-1.47.18v-1.13a3.81,3.81,0,0,0,1.83-.37,4,4,0,0,0,.37-1.88v-12a2.94,2.94,0,0,0-.37-1.51,12.65,12.65,0,0,0-1.65-.37v-.94h1.84c.55,0,.91.18,1.28.18s.73-.18,1.28-.18h1.65Zm6.23,6.58v-1.13h0a2.57,2.57,0,0,0,1.65-.37,4,4,0,0,0,.37-1.88V114a2.74,2.74,0,0,0-.37-1.32,2.83,2.83,0,0,0-1.46-.37h-.19v-.94h2a9.09,9.09,0,0,0,2.2.18,8.42,8.42,0,0,0,2-.18h2v.94a2.36,2.36,0,0,0-1.46.37c-.37.19-.55.57-.55,1.32v12.23a4.21,4.21,0,0,0,.36,1.88,3.59,3.59,0,0,0,1.65.37h0v1.13a7,7,0,0,0-2-.18h-4a9.13,9.13,0,0,0-2.2.18Zm20.17.19H374.1L368.41,114a3,3,0,0,0-.73-1.32,2.68,2.68,0,0,0-1.28-.37h-.19v-.94h2.2c.74,0,1.29.18,1.84.18s.91-.18,1.65-.18h2.75v.94h-.19a6.24,6.24,0,0,0-1.28.19,1,1,0,0,0-.55.75c0,.19,0,.19.18.37v.19l3.67,11.1L380.69,114c.19-.38.19-.38.19-.56a.67.67,0,0,1,.18-.38c0-.38-.18-.38-.55-.56-.18-.19-.73-.19-1.28-.19H379v-.94H384l.19.94a2,2,0,0,0-1.1.37,3,3,0,0,0-.55,1.13Zm10.26-.19v-1.13h.37a3.39,3.39,0,0,0,1.47-.37,2.82,2.82,0,0,0,.36-1.32V114a1.65,1.65,0,0,0-.36-1.13,2.09,2.09,0,0,0-1.47-.56h-.37v-.94h13.39v2.07c0,.56.18,1.5.18,2.25h-1.1a4.24,4.24,0,0,0-1.1-2.44,6.08,6.08,0,0,0-3.12-.57c-.73,0-1.28,0-1.46.19-.37,0-.37.38-.37.57v6.2h2.2a1.76,1.76,0,0,0,1.65-.75A2.51,2.51,0,0,0,397,117h.92v6.21H397a2.51,2.51,0,0,0-.55-1.88c-.18-.38-.73-.57-1.47-.57h-2.38V127c0,.38,0,.56.18.75a1.93,1.93,0,0,0,1.1.19,8.88,8.88,0,0,0,4.4-.75,5.15,5.15,0,0,0,1.65-2.82H401c-.18.94-.36,1.69-.55,2.63a13.2,13.2,0,0,0-.36,2.63,19.22,19.22,0,0,0-3.3-.18h-7.52a17.14,17.14,0,0,0-3.12.18Zm17.6,0v-1.13a2.31,2.31,0,0,0,1.47-.37,2.53,2.53,0,0,0,.55-1.88V114a1.74,1.74,0,0,0-.55-1.32,2.14,2.14,0,0,0-1.28-.37h-.19v-.94h1.65c.55,0,1.1.18,1.65.18.73,0,1.65-.18,2.75-.18h2.38a9.32,9.32,0,0,1,4.59.94,3.72,3.72,0,0,1,1.65,3.2,4.38,4.38,0,0,1-1.1,3,6.17,6.17,0,0,1-3.12,2.06,6.58,6.58,0,0,1,2.2,1.88,30.27,30.27,0,0,1,2.38,4,.69.69,0,0,0,.19.56c.55,1.32,1.1,1.88,1.65,1.88h.18v.94c-.92-.19-2-.19-3.3-.37h-.37a2.73,2.73,0,0,1-1.46-.38,5.34,5.34,0,0,1-1.1-1.88c-.19-.57-.37-1.13-.74-2.07-.73-2.07-1.28-3.2-1.83-3.58-.18,0-.37-.18-.55-.18h-1.65v4.89a2.7,2.7,0,0,0,.37,1.69c.18.38.73.56,1.46.56v1.13a12.32,12.32,0,0,0-2.38-.18h-3.48a8.42,8.42,0,0,0-2,.18Zm6-9.59h1.1a3.76,3.76,0,0,0,2.75-.94,4.78,4.78,0,0,0,0-5.64,4.54,4.54,0,0,0-2.93-.94h-.55c-.19.18-.19.18-.37.18Zm14.3,3.39H426a5.91,5.91,0,0,0,.92,3.57,3.27,3.27,0,0,0,2.75,1.32,4,4,0,0,0,2.38-.76,2.71,2.71,0,0,0,.92-2.07,3.08,3.08,0,0,0-.55-1.69,8.58,8.58,0,0,0-2.75-1.5c-2-.94-3.48-1.7-4.22-2.64a4.83,4.83,0,0,1-1.1-3.19,4.91,4.91,0,0,1,1.65-3.95,5.35,5.35,0,0,1,4.22-1.51,8.62,8.62,0,0,1,2.2.19,18.61,18.61,0,0,1,2.93.37v4.9h-1.46a4.86,4.86,0,0,0-.92-3,3.94,3.94,0,0,0-4.58-.38,3.36,3.36,0,0,0-.74,1.88,3.11,3.11,0,0,0,.55,1.69,17.25,17.25,0,0,0,2.75,1.51,3,3,0,0,1,.92.38,9.21,9.21,0,0,1,3.12,1.69,3.42,3.42,0,0,1,1.1,1.69,3.87,3.87,0,0,1,.36,2.07,5.76,5.76,0,0,1-1.65,4.33A6.73,6.73,0,0,1,430,130a15.67,15.67,0,0,1-3.12-.38,7.69,7.69,0,0,1-2.93-1.13,6,6,0,0,0,.18-1.88v-3.19Zm15.77,6.2v-1.13h.18a3.59,3.59,0,0,0,1.65-.37,4.21,4.21,0,0,0,.36-1.88V114a1.74,1.74,0,0,0-.55-1.32,2.14,2.14,0,0,0-1.28-.37h-.36v-.94h2.19a7.72,7.72,0,0,0,2,.18,9.09,9.09,0,0,0,2.2-.18h2v.94a3.65,3.65,0,0,0-1.65.37,1.81,1.81,0,0,0-.37,1.32v12.23a4,4,0,0,0,.37,1.88,2.3,2.3,0,0,0,1.46.37h.19v1.13a7.72,7.72,0,0,0-2-.18h-4a11.39,11.39,0,0,0-2.38.18Zm14.11,0v-1.13h.37a2.3,2.3,0,0,0,1.46-.37,1.72,1.72,0,0,0,.55-1.32V112.69h-.55a3.25,3.25,0,0,0-3.85,3.2h-.91l.18-4.51h14.48l.19,4.51H465a3.49,3.49,0,0,0-3.85-3.2h-.55v13.92a2.91,2.91,0,0,0,.37,1.51,3.53,3.53,0,0,0,1.65.37h.18v1.13a13.24,13.24,0,0,0-2.57-.18h-4a9.09,9.09,0,0,0-2.2.18Zm24.38-8.09v4.71a2.53,2.53,0,0,0,.55,1.88,2.57,2.57,0,0,0,1.65.37H481v1.13a13.29,13.29,0,0,0-2.57-.18h-3.85a14.13,14.13,0,0,0-2.75.18v-1.13h.55a2.57,2.57,0,0,0,1.65-.37c.37-.38.37-.94.37-1.88v-4.71l-4.58-7.9h0c-.55-.75-1.1-1.31-1.65-1.31h-.37v-.94H470c.55,0,1.28.18,2,.18.92,0,1.65-.18,2.39-.18h1.83v.94c-.73,0-1.28,0-1.47.19-.36.18-.36.18-.36.56v.38L478,120l3.49-6.58v-.57c0-.19,0-.37-.37-.37a3.06,3.06,0,0,0-1.47-.19v-.94h1.65c.37,0,.74.18,1.1.18.55,0,.92-.18,1.29-.18H485v.94a6.21,6.21,0,0,0-1.1.19,4.55,4.55,0,0,0-.73.94Z" fill="#b92917" fill-rule="evenodd"/><path d="M198.37,58.72c-1.1-.38-.92-3.36-2.75-4.48a7.08,7.08,0,0,0-4.4-1.11c-1.29.18-4,2.42-4.22,7.08,0,4.65,4.58,17.51,6.23,19.74,1.66,2,7.34.93,6.61-1.3-.92-2.05-2.39-7.83-.92-10.62,1.47-2.61,4.22-7.45,12.29-12.3,8.25-4.65,14.48-4.46,15.95-3.91s.92,3.17.73,3.91c-.36.75-5.87,7.27-5.87,7.83-.18.56-2,1.67-2.2-.37,0-2-.36-4.1-2.38-4.85-1.83-.74-3.67-1.12-4.58,1.49a4.65,4.65,0,0,0,1.65,5.22c.91.93,2.56,2.42,1.1,2.61-1.29,0-5.5,2.79-5.5,2.79s-2.76-.37-3.31,2c-.36,2.42,1.29,5.22,2.57,4.47a56.67,56.67,0,0,1,7-3.91c2.38-.93,6.23-2.24,7.7-1.3s1.65,2.42,4.22,3.72c2.75,1.49,7.88,1.68,10.08.75,2.21-1.12,13.94-6.52,16.33-6.34,2.56.19,5.31,2.8,6.41-1.86.92-4.66-4.76-17.14-12.28-20.12a44.49,44.49,0,0,0-26.41-1.68c-9.9,2.05-14.67,4.1-18.34,7.83-3.66,3.54-4.58,5.22-5.68,4.66Zm26,8.56a2.08,2.08,0,0,0-1.84-.18c-1.1.18,6.42-4.66,9.17-6.33s1.65-3.55.19-5.59c-1.29-1.87-1.29-1.87-2-2.8a29.64,29.64,0,0,1,9.17-.37c4.77.37,10.45,1.86,13.38,6,1.65,2.24-7,5.59-9.16,6.89-2.39,1.12-9.17,4.85-10.64,5.59-1.47.56-2-.93-3.67-2.79C227.34,66,224.41,67.28,224.41,67.28Z" fill="#b92917" fill-rule="evenodd"/><path d="M294.35,43.82c-2.18.18-3.45,1.09-3.08,4.73.54,3.45,2.72,3.81,2,9.63-.72,5.64-2,17.46-2,19.46,0,1.82-1.64,4.72-2,6-.54,1.27-1.27,5.27,1.63,5.82s3.09-3.28,3.45-4.91c.54-1.82,2.36-16.91,2.36-19.28a46.8,46.8,0,0,1,.72-10.18c.55-2,1.27-3.82.37-6.36-.91-2.37-1.27-5.09-3.45-4.91Zm14,2.73c-.91-.19-2.54-.37-3.27,1.27-.9,1.64,0,4.36.73,6a14.18,14.18,0,0,1,.91,5.27c-.37,1.64-.55,12.55.54,13.64.91,1.09,2.72-.18,3.81-2.55,1.09-2.54,1.82-5.82,1.09-7.45a7.36,7.36,0,0,1,.36-5.46c.91-2.18.37-5.09-.36-7.63a4.06,4.06,0,0,0-3.81-3.09Zm17.6-18.19c-1.09-.18-3.45-.36-4.17.55-.91.91-1.27,2.91-.37,5.09a10.79,10.79,0,0,1,1.09,5.82c-.18,1.27.18,16,.18,19.82s-.54,11.09-.36,16,0,13.63,1.82,16c2,2.36,4.71-1.09,4-3.64-.73-2.36-.91-1.64-1.64-6.18-.54-4.73-.72-28.73-.72-30.55.18-2,.72-8.91,1.63-10.91.73-2,3.63-4.18,3.09-6.54C330.82,31.64,327,28.73,325.92,28.36Z" fill="#b92917" fill-rule="evenodd"/><path d="M384.45,72.67c1.84,3.16,7.9,12.84,13.22,10.79,5.33-1.86,3.13-8,.92-9.49-2-1.49-12.12-6.14-12.12-6.14-4.23-1.86-3.12,3-2,4.84Zm-5-33.69c.55-.37-.74-5-.55-7.26s1.84-3.72,3.3-3.35,3.68,3.91,3.49,5.59a11.19,11.19,0,0,1-1.65,4.65c-.55.56-.92,1.3-1.1,3.16-.18,1.12-.55,2.8-.92,4.47a25.68,25.68,0,0,0,3.67-1.3,49.88,49.88,0,0,0,4.78-2.79c1.84-1.49,3.67,0,5.69,1.11,1.84,1.12.19,3-1.65,3.91-2,1.12-3.67.56-5,1.12-1.1.56-6.24,2.79-8.81,4.28a83,83,0,0,1-3.13,13.21c-1.1,3.35-5.51,8.38-7.71,11.17-2.39,3-3.67,6.89-6.06,8.38-2.39,1.67-2.94.55-3.31-.94S358,81,359.47,79.18c1.47-2,1.84-4.28,2.94-2.23.92,1.86,2.57.74,2.2.74-.37-.18,4.78-5.77,6.25-8.37,1.65-2.79,3.49-9.12,4.22-10.61a17.33,17.33,0,0,0,.92-3.16,27.49,27.49,0,0,0-3.49,2.23c-2,1.49-2.39,2-6.06.56-3.67-1.68-4.59-3.35-4.78-5.4-.36-2,.74-3.35,1.84-3.54,1.29-.37,4.22.38,6.24.75,2.21.37,6.43-2,7.54-2.42l.18-.19C378.39,43.26,379.12,39.17,379.49,39Z" fill="#b92917" fill-rule="evenodd"/><path d="M435,35.06a9.39,9.39,0,0,0,1.48,2.56c.74.73,2,2,1.85,2.55,0,.73-.37,5.11-.37,6.21s-.55,4,.19,4.74c.55.73,1.66,2.74,1.66,2.74s1.48.37,1.85-.73a1.15,1.15,0,0,1,1.48-.91s2.22.91,1.66,1.46a4.44,4.44,0,0,1-1.66,1.46c-1.11.73-10.91,6-10.91,6s-3.33.92-4.25,1.1-2.22-.18-2.59,1.09a4.48,4.48,0,0,0,.92,4c.56.18,2.78,1.09,4.81.18,2.59-1.09,5-4,6.84-5.66A48.58,48.58,0,0,1,447,56.23c2.77-1.09,8.87-4,11.83-4.38s3.51,1.1,3,1.83a7.13,7.13,0,0,1-3,2.74,1.27,1.27,0,0,0-.37,1.46,16,16,0,0,0,3.33-.73c2.77-.73,6.47-.73,6.84-1.65.37-.73-1.11-6.38-4.44-6.57a25.45,25.45,0,0,0-8.32,1.1c-.92.18-1.85-.55-.74-1.64,1.11-1.28,2.78-2.74,3.52-5.11.74-2.56,1.85-3.11,1.11-4.2-.93-1.1-2.22-3.29-2.78-3.65s0-1.65,1.85-2.38c1.85-.91,3.88-2.92,2.77-4.19-1.1-1.46-3.32-.73-3.51-2,0-1.46-1.11-2.19,0-2.56s2.22-.73,1.85-1.27a25.88,25.88,0,0,0-1.66-2.93c-.93-.91-3-1.09-3.15-.18a14.14,14.14,0,0,0-.37,3.83c0,.92-.18,2.2.37,2.93.74.73.93,1.09.74,1.82a3.1,3.1,0,0,1-1.48,2.37c-1.47.73-2.21.73-2.58,1.65-.56,1.09-.56,3.65,0,4,.37.18,1.85-.18,1.48,1.64-.56,2-2.78,6.57-2.59,7.31.18.91,1.66.54,1.66,1.45,0,1.1.56,2.93-.18,3.47A11,11,0,0,1,449,51.85s-2.58.73-1.85-1.46c.56-2.19,1.11-5.66,1.3-6.38,0-.73.74-1.65-.37-1.83-.93,0,.18-1.83-1.11-1.28-1.11.37-2,.92-1.66-.55.18-1.64,2-6.75,2.58-9.85.37-3.1-.74-3.65-1.66-4.38-.92-.55-3.7.91-3.7,2s1.48,2.73,1.67,4.19-.19,6.21,0,6.76a39.52,39.52,0,0,1-.56,4.38c-.18.55-3.33,2.92-3,.36.56-2.55.74-5.66.19-7.3a10,10,0,0,0-4.44-4c-.74,0-1.48,1.82-1.48,2.55Zm7.21,28.47c0-1.45,1.85-2.19,3.15-2.55,1.11-.18,5.54-2.37,7.58-2.56,2,0,2,2.92,1.47,4.2a22.42,22.42,0,0,1-2.4,4.2c-.55.91,2.4,1.46,2.4,1.46s4.63-1.1,6.48-.91c1.66.18,2,2.73,1.66,4.74s-5.36,1.28-6.47,1.1-.37,1.82-.74,2.92a46,46,0,0,1-1.11,6.57,10.9,10.9,0,0,1-5,6.57c-1.67.73-4.62-1.1-5.36-2.37-.56-1.28-1.85-1.1-2.41-3.11-.74-2,2.78-.73,4.26,0a9.31,9.31,0,0,0,5,.19c1.29-.55,2.22-5.11,2.22-6.76a3.34,3.34,0,0,0-1.67-3.28c-.55-.18-3,.91-5.17,2-2,1.09-3.52,2.37-5.18,2.73-1.85.37-4.07-1.46-4.44-3.28s4.81-2,5.73-2.19c1.11-.18,7.4-3.11,7.4-3.11.37-1.45,1.11-5.29-1.3-5.65-1.48-.18-2.4,1.82-3.69,1.82S442.38,65,442.19,63.53Z" fill="#b92917" fill-rule="evenodd"/></g></g></svg>