<?xml version="1.0" encoding="utf-8"?>
<!-- Generator: Adobe Illustrator 24.3.0, SVG Export Plug-In . SVG Version: 6.00 Build 0)  -->
<svg version="1.1" id="图层_1" xmlns="http://www.w3.org/2000/svg" xmlns:xlink="http://www.w3.org/1999/xlink" x="0px" y="0px"
	 viewBox="0 0 281.7 73.1" style="enable-background:new 0 0 281.7 73.1;" xml:space="preserve">
<style type="text/css">
	.st0{fill-rule:evenodd;clip-rule:evenodd;fill:#FFFFFF;}
</style>
<g id="图层_2_1_">
	<g id="图层_1-2">
		<path class="st0" d="M11.4,39.4c-1.1-0.4-0.9-3.3-2.8-4.5c-1.3-0.9-2.8-1.2-4.4-1.1c-1.3,0.2-4,2.4-4.2,7.1
			c0,4.7,4.6,17.5,6.2,19.8c1.7,2,7.3,0.9,6.6-1.3c-0.9-2-2.4-7.8-0.9-10.6c1.5-2.6,4.2-7.5,12.3-12.3c8.2-4.6,14.5-4.5,16-3.9
			c1.5,0.6,0.9,3.2,0.7,3.9c-0.4,0.8-5.9,7.3-5.9,7.8c-0.2,0.6-2,1.7-2.2-0.4c0-2-0.4-4.1-2.4-4.8c-1.8-0.7-3.7-1.1-4.6,1.5
			c-0.6,1.9,0,4,1.6,5.2c0.9,0.9,2.6,2.4,1.1,2.6c-1.3,0-5.5,2.8-5.5,2.8s-2.8-0.4-3.3,2c-0.4,2.4,1.3,5.2,2.6,4.5
			c2.2-1.5,4.6-2.8,7-3.9c2.4-0.9,6.2-2.2,7.7-1.3s1.7,2.4,4.2,3.7c2.8,1.5,7.9,1.7,10.1,0.7c2.2-1.1,13.9-6.5,16.3-6.3
			c2.6,0.2,5.3,2.8,6.4-1.9c0.9-4.6-4.8-17.1-12.3-20.1c-8.4-3.2-17.6-3.8-26.4-1.7c-9.9,2-14.7,4.1-18.3,7.8
			C13.4,38.3,12.5,40,11.4,39.4z M37.4,48c-0.5-0.4-1.2-0.4-1.8-0.2c-1.1,0.2,6.4-4.7,9.2-6.3s1.7-3.5,0.2-5.6
			c-1.3-1.9-1.3-1.9-2-2.8c3-0.6,6.1-0.7,9.2-0.4c4.8,0.4,10.5,1.9,13.4,6c1.7,2.2-7,5.6-9.2,6.9c-2.4,1.1-9.2,4.8-10.6,5.6
			c-1.5,0.6-2-0.9-3.7-2.8C40.3,46.7,37.4,48,37.4,48L37.4,48z"/>
		<path class="st0" d="M107.3,24.5c-2.2,0.2-3.4,1.1-3.1,4.7c0.5,3.5,2.7,3.8,2,9.6c-0.7,5.6-2,17.5-2,19.5c0,1.8-1.6,4.7-2,6
			c-0.5,1.3-1.3,5.3,1.6,5.8s3.1-3.3,3.4-4.9c0.5-1.8,2.4-16.9,2.4-19.3c-0.1-3.4,0.1-6.8,0.7-10.2c0.6-2,1.3-3.8,0.4-6.4
			C109.9,27,109.5,24.3,107.3,24.5z M121.3,27.2c-0.9-0.2-2.5-0.4-3.3,1.3c-0.9,1.6,0,4.4,0.7,6c0.6,1.7,0.9,3.5,0.9,5.3
			c-0.4,1.6-0.6,12.5,0.5,13.6c0.9,1.1,2.7-0.2,3.8-2.5c1.1-2.5,1.8-5.8,1.1-7.5c-0.6-1.8-0.5-3.7,0.4-5.5c0.9-2.2,0.4-5.1-0.4-7.6
			C124.7,28.6,123.2,27.3,121.3,27.2z M138.9,9c-1.1-0.2-3.4-0.4-4.2,0.6c-0.9,0.9-1.3,2.9-0.4,5.1c0.9,1.8,1.3,3.8,1.1,5.8
			c-0.2,1.3,0.2,16,0.2,19.8s-0.5,11.1-0.4,16s0,13.6,1.8,16c2,2.4,4.7-1.1,4-3.6c-0.7-2.4-0.9-1.6-1.6-6.2
			c-0.5-4.7-0.7-28.7-0.7-30.5c0.2-2,0.7-8.9,1.6-10.9c0.7-2,3.6-4.2,3.1-6.5C143.8,12.3,140,9.4,138.9,9L138.9,9z"/>
		<path class="st0" d="M197.4,53.4c1.8,3.2,7.9,12.8,13.2,10.8c5.3-1.9,3.1-8,0.9-9.5c-2-1.5-12.1-6.1-12.1-6.1
			C195.2,46.7,196.4,51.5,197.4,53.4L197.4,53.4z M192.4,19.7c0.6-0.4-0.7-5-0.6-7.3s1.8-3.7,3.3-3.4s3.7,3.9,3.5,5.6
			c-0.2,1.7-0.8,3.2-1.6,4.7c-0.6,0.5-0.9,1.3-1.1,3.2c-0.2,1.1-0.6,2.8-0.9,4.5c1.3-0.3,2.5-0.8,3.7-1.3c1.6-0.8,3.2-1.8,4.8-2.8
			c1.8-1.5,3.7,0,5.7,1.1c1.8,1.1,0.2,3-1.6,3.9c-2,1.1-3.7,0.6-5,1.1c-1.1,0.6-6.2,2.8-8.8,4.3c-0.7,4.5-1.7,8.9-3.1,13.2
			c-1.1,3.3-5.5,8.4-7.7,11.2c-2.4,3-3.7,6.9-6.1,8.4c-2.4,1.7-2.9,0.6-3.3-0.9s-2.6-3.3-1.1-5.2c1.5-2,1.8-4.3,2.9-2.2
			c0.9,1.9,2.6,0.7,2.2,0.7c-0.4-0.2,4.8-5.8,6.2-8.4c1.6-2.8,3.5-9.1,4.2-10.6c0.4-1,0.7-2.1,0.9-3.2c-1.2,0.7-2.4,1.4-3.5,2.2
			c-2,1.5-2.4,2-6.1,0.6c-3.7-1.7-4.6-3.4-4.8-5.4c-0.4-2,0.7-3.4,1.8-3.5c1.3-0.4,4.2,0.4,6.2,0.8c2.2,0.4,6.4-2,7.5-2.4l0.2-0.2
			C191.4,24,192.1,19.8,192.4,19.7L192.4,19.7z"/>
		<path class="st0" d="M248,15.7c0.4,0.9,0.9,1.8,1.5,2.5c0.7,0.7,2,2,1.9,2.6c0,0.7-0.4,5.1-0.4,6.2s-0.6,4,0.2,4.7
			c0.6,0.7,1.7,2.7,1.7,2.7s1.5,0.4,1.9-0.7c0.1-0.6,0.7-1.1,1.3-0.9c0.1,0,0.1,0,0.2,0c0,0,2.2,0.9,1.7,1.5s-0.4,0.7-1.7,1.5
			c-1.1,0.7-10.9,6-10.9,6s-3.3,0.9-4.2,1.1s-2.2-0.2-2.6,1.1c-0.4,1.4,0,2.9,0.9,4c0.6,0.2,2.8,1.1,4.8,0.2c2.6-1.1,5-4,6.8-5.7
			c2.8-2.2,5.8-4.1,9-5.6c2.8-1.1,8.9-4,11.8-4.4s3.5,1.1,3,1.8c-0.7,1.2-1.8,2.1-3,2.7c-0.4,0.4-0.6,0.9-0.4,1.5
			c1.1-0.1,2.2-0.4,3.3-0.7c2.8-0.7,6.5-0.7,6.8-1.6c0.4-0.7-1.1-6.4-4.4-6.6c-2.8-0.1-5.6,0.3-8.3,1.1c-0.9,0.2-1.9-0.5-0.7-1.6
			c1.1-1.3,2.8-2.7,3.5-5.1c0.7-2.5,1.9-3.1,1.1-4.2c-0.9-1.1-2.2-3.3-2.8-3.6c-0.6-0.4,0-1.6,1.9-2.4c1.9-0.9,3.9-2.9,2.8-4.2
			c-1.1-1.5-3.3-0.7-3.5-2c0-1.5-1.1-2.2,0-2.6s2.2-0.7,1.9-1.3c-0.5-1-1-2-1.7-2.9c-0.9-0.9-3-1.1-3.1-0.2
			c-0.3,1.3-0.4,2.5-0.4,3.8c0,0.9-0.2,2.2,0.4,2.9c0.7,0.7,0.9,1.1,0.7,1.8c-0.1,1-0.6,1.9-1.5,2.4c-1.5,0.7-2.2,0.7-2.6,1.6
			c-0.6,1.1-0.6,3.6,0,4c0.4,0.2,1.9-0.2,1.5,1.6c-0.6,2-2.8,6.6-2.6,7.3c0.2,0.9,1.7,0.5,1.7,1.5c0,1.1,0.6,2.9-0.2,3.5
			c-1,0.7-2,1.2-3.2,1.5c0,0-2.6,0.7-1.9-1.5c0.6-2.2,1.1-5.7,1.3-6.4c0-0.7,0.7-1.6-0.4-1.8c-0.9,0,0.2-1.8-1.1-1.3
			c-1.1,0.4-2,0.9-1.7-0.5c0.2-1.6,2-6.7,2.6-9.8c0.4-3.1-0.7-3.7-1.7-4.4c-0.9-0.6-3.7,0.9-3.7,2s1.5,2.7,1.7,4.2s-0.2,6.2,0,6.7
			c-0.1,1.5-0.3,2.9-0.6,4.4c-0.2,0.5-3.3,2.9-3,0.4c0.6-2.6,0.7-5.7,0.2-7.3c-1-1.8-2.6-3.1-4.4-4C248.6,13.2,247.9,15,248,15.7
			L248,15.7z M255.2,44.2c0-1.5,1.8-2.2,3.2-2.5c1.1-0.2,5.5-2.4,7.6-2.6c2,0,2,2.9,1.5,4.2c-0.6,1.5-1.5,2.9-2.4,4.2
			c-0.5,0.9,2.4,1.5,2.4,1.5s4.6-1.1,6.5-0.9c1.7,0.2,2,2.7,1.7,4.7s-5.4,1.3-6.5,1.1s-0.4,1.8-0.7,2.9c-0.2,2.2-0.6,4.4-1.1,6.6
			c-0.7,2.8-2.5,5.1-5,6.6c-1.7,0.7-4.6-1.1-5.4-2.4c-0.6-1.3-1.9-1.1-2.4-3.1c-0.7-2,2.8-0.7,4.3,0c1.6,0.5,3.3,0.6,5,0.2
			c1.3-0.5,2.2-5.1,2.2-6.8c0.2-1.3-0.5-2.6-1.7-3.3c-0.5-0.2-3,0.9-5.2,2c-2,1.1-3.5,2.4-5.2,2.7c-1.9,0.4-4.1-1.5-4.4-3.3
			s4.8-2,5.7-2.2c1.1-0.2,7.4-3.1,7.4-3.1c0.4-1.5,1.1-5.3-1.3-5.7c-1.5-0.1-2.4,1.9-3.7,1.9S255.4,45.7,255.2,44.2L255.2,44.2z"/>
	</g>
</g>
</svg>
