<svg xmlns="http://www.w3.org/2000/svg" viewBox="0 0 145.71 146.69"><g id="图层_2" data-name="图层 2"><g id="图层_1-2" data-name="图层 1"><path d="M74.22,97.56H71.49V67c-.19-2-.55-3.76-3.29-3.94-1.83,0-3.48,1.25-3.48,3.94q-.25,13.69-.54,27.39c-.19,5.54,2.55,10,8.59,10,6.21,0,9-4.48,8.76-10-.18-9.13-.37-18.26-.73-27.39,0-2.69-1.46-3.94-3.47-3.94-2.74.18-3.11,2-3.11,3.94Z" fill="#b92917" fill-rule="evenodd"/><path d="M17.06,48.85c-.18.18-.7-.18-1.23,0a3.84,3.84,0,0,0-.88.9c-.18.36,0,1.26,1.06,2A11.33,11.33,0,0,0,21.13,53c.71-.17,1.24-1.61.71-1.61-.71-.18-2.12-.54-2.47-1.26a6.25,6.25,0,0,1-1.07-4.5,6.65,6.65,0,0,1,1.24-4.32.72.72,0,0,1,.88.36c.18.18.89,2.34,1.06,2.52,0,0,0,.72-.53.36-.35-.18-.89-.36-1.23,0-.53.18-.89.72-.35,1.26a1.51,1.51,0,0,0,1.4.36c.18-.18.89-.36.71,0a6.55,6.55,0,0,0-.17,1.62s-.54.72,0,1.08,1.41.36,1.41,0V46.69a7,7,0,0,1,.7-2c.53-.18.89,0,1.6-.36A4.65,4.65,0,0,0,26.43,42a20.38,20.38,0,0,1,.88-4.49c.36-.54,1.24-.9.36-1.8s-4.42-1.26-6.19.18a12.81,12.81,0,0,0-3.89,5.75c-.88,2.52-1.05,4-.71,5.22.36,1.44.54,1.8.18,2Zm5.49-4.68s-.18,0-.36.36V41.47c0-.9-.71-.9-1.24-.72H19.9c.34-.72.7-1.26,1.23-2.15a4.07,4.07,0,0,1,3.18-2.16c.71-.18.35,2.34.18,3.05a16.47,16.47,0,0,1-.18,3.06c0,.54-.36.36-1.06.54C22.72,43.27,22.55,44.17,22.55,44.17Z" fill="#b92917" fill-rule="evenodd"/><path d="M45,17.08c-.49.18-.66.53-.33,1.39.49.7,1,.53,1.32,2.09.49,1.39,1.31,4.34,1.47,4.86a7.1,7.1,0,0,1,.16,1.74c0,.35.17,1.39.83,1.22.82-.18.49-1,.32-1.57A26.56,26.56,0,0,0,47.42,22c-.16-.52-.65-2.09-.82-2.61a2,2,0,0,0-.49-1.56C45.78,17.43,45.46,16.74,45,17.08Z" fill="#b92917" fill-rule="evenodd"/><path d="M48.8,15.93c-.27.18-.56.18-.56.71a4.12,4.12,0,0,0,.56,1.41,4.68,4.68,0,0,1,.71,1.06,11.15,11.15,0,0,0,1.12,3.36c.28.17.57-.36.57-1.06a6.42,6.42,0,0,0-.29-1.95,1.52,1.52,0,0,1-.41-1.23,4.48,4.48,0,0,0-.71-1.95A.91.91,0,0,0,48.8,15.93Z" fill="#b92917" fill-rule="evenodd"/><path d="M51.38,9.85a1.19,1.19,0,0,0-1,.51,1,1,0,0,0,.5,1.22A3.36,3.36,0,0,1,51.55,13c.17.35,1.67,3.81,2,4.67s1,2.77,1.51,3.81c.51,1.21,1.34,3.29,2,3.81.67.35,1-.86.51-1.38-.34-.52-.34-.35-1-1.39-.5-1-2.85-6.75-3-7.1a16.18,16.18,0,0,1-.67-2.77c0-.69.33-1.38,0-1.9C52.72,10.19,51.55,9.85,51.38,9.85Z" fill="#b92917" fill-rule="evenodd"/><path d="M97.47,24.56c.14.86.42,3.64,1.68,3.82s1.27-1.57,1-2.09a25,25,0,0,0-1.82-2.78C97.61,22.64,97.47,23.86,97.47,24.56Z" fill="#b92917" fill-rule="evenodd"/><path d="M131,43.51l-.54.56c0,.18-.35.74-.53.74s-1.24.38-1.6.38c-.18,0-1.07.18-1.07.37a2.67,2.67,0,0,1-.71.75.36.36,0,0,0,.36.37c.35,0,.35.37.35.37s0,.75-.18.56-.17,0-.53-.37l-2.31-2.43s-.53-.74-.71-.93a.58.58,0,0,0-.54-.56,1,1,0,0,0-.89.56,2.37,2.37,0,0,0,.36,1.31,11.27,11.27,0,0,0,2,1.3,11.58,11.58,0,0,1,2.13,1.87,30.66,30.66,0,0,1,2.14,2.8c.18.75,0,.94-.36.94a2.44,2.44,0,0,1-.89-.56.24.24,0,0,0-.36,0s0,.18.54.93c.35.56.53,1.49.89,1.68.18,0,1.6-.93,1.24-1.87a5.53,5.53,0,0,0-.88-2.05c-.18-.19,0-.56.35-.38a3.22,3.22,0,0,0,1.6.56c.71,0,.89.19,1.07,0a2.87,2.87,0,0,0,.71-1.12c.17-.18.53-.18.89.19.36.56.89.93,1.24.56.18-.56-.17-1.12.18-1.12.35-.19.53-.56.71-.19.19.19.36.56.54.38,0-.19.36-.38.53-.75s0-.93-.17-.93c-.36.18-.9.18-1.08.37a.7.7,0,0,0-.71.37c-.17.19-.17.19-.35.19s-.53.19-.71-.19c-.35-.18-.35-.56-.72-.56-.18,0-.88.19-.88.38-.18.18.17.56-.36.56s-2-.19-2.14,0c-.17,0,0,.37-.17.56-.36,0-.71.37-.89.18l-.72-.74s-.35-.56.36-.56c.54,0,1.42-.19,1.6-.19s.53,0,.53-.19c-.17-.37.36-.18.18-.56-.18-.18-.35-.37,0-.37.54-.19,2,0,2.86-.19.7-.18.7-.56.88-.74a1.17,1.17,0,0,0-.88-.94,4.89,4.89,0,0,1-.9.94c-.35,0-1.6.37-1.6.56-.18,0-1.07.18-1.25.18s-1.06-.74-.35-.74a15.77,15.77,0,0,0,2-.56c.35-.38.71-1.31.53-1.5C131.69,43.51,131.16,43.32,131,43.51Z" fill="#b92917" fill-rule="evenodd"/><path d="M124.65,48.16c-.36.19-.72.55-.54.73,0,.36.73.54.73.91.18.54-.91.72-1.27.72a14.89,14.89,0,0,1-1.45-1.63c-.18-.18-.54-1.63-1.08-1.27a1.34,1.34,0,0,0-.54,1.45c.36.36.72.55,1.26,1.09.36.36.9.91.9,1.09s-.36.54-.72.72a3.63,3.63,0,0,1-2,0,3.18,3.18,0,0,1-.37-1.27c.18-.54.18-1.45-.36-1.08-.37.18-.18.54-.54.9a1.08,1.08,0,0,0-.18,1.45,3,3,0,0,0,2.16.73,10,10,0,0,0,1.63-.18c.36,0,.9-.37.9,0,0,.18.19,1.63.73,1.45.54,0,1.26-.37,1.09-.73a4.66,4.66,0,0,0-.73-1.63s0-.73.18-.73c.37.19.91.19,1.26.37.37,0,1.27-.37,1.1-.73a18.69,18.69,0,0,0-1.27-1.81C125.38,48.35,125,48,124.65,48.16Z" fill="#b92917" fill-rule="evenodd"/><path d="M99.26,15.23A11.81,11.81,0,0,0,98,17.14h-.19c-.35,0-1.6,0-2-.34-.53-.18-1.25-.7-1.42-.7-.36-.17-.72,0-.9.52a1.49,1.49,0,0,0,.54,1.74c.71.87.89.69,1.61.52.36,0,.72-.17,1.07-.17a3,3,0,0,0-.53.69,27.55,27.55,0,0,1-2.15,2.09L91.56,22.7c.18.18-.35.18-.35-.35-.19-.52-.54-.17-1.08.18s-.18,1-.18,1.39c-.18.35-.18.69.72.52A11.68,11.68,0,0,0,93,23.05,10.66,10.66,0,0,0,96,21.31a19.93,19.93,0,0,0,2.15-2.78h2.67c.37,0,.72.35,1.27.18.53,0,1.25-.18.89-.7s-.72-1-1.26-.87a5.43,5.43,0,0,1-1.6.18,2.38,2.38,0,0,1-.9-.18c.18-.34.53-.69.53-.87.37-.34.54-.52.72-.69a1.41,1.41,0,0,0,.9-.87,2.29,2.29,0,0,0-.18-1.56.8.8,0,0,0-1.25.34C99.61,14,99.44,15.23,99.26,15.23Z" fill="#b92917" fill-rule="evenodd"/><path d="M72.86,38.43h-.73c-.19-1.26-.92-2.89-2.55-2.89H66.29a3.08,3.08,0,0,1-2.55-1.08c.36,1.62.91,3.25,2.74,3.61h2.37a3.76,3.76,0,0,1,2.36.54c-3.09.18-6,1.27-6.92,4-.92,2.53-.55,8.49-1.09,11.38h-4c-3.28-.19-4.37,2.71-4.56,6.14-.54,10.11-1.27,20-1.82,30.16-.36,7.77-2,11.38-4.56,14.09h5.48c.9-.72,1.45-1.63,2.72-3.61A14.33,14.33,0,0,1,55,104.36h4.74A13.77,13.77,0,0,0,61,98.22c.55-11.2,1.09-22.4,1.46-33.6.19-1.8.74-2.89,2.19-2.89h7.29V46.92a4.07,4.07,0,0,1-3.09-3.79,3.87,3.87,0,0,1,4-3.79,3.71,3.71,0,0,1,3.82,3.79,3.87,3.87,0,0,1-3.1,3.79V61.73h7.48c1.45,0,2,1.09,2,2.89q.84,16.8,1.65,33.6A13.77,13.77,0,0,0,86,104.36h4.74a13.81,13.81,0,0,1-1.64-3.61,35.84,35.84,0,0,0,2.74,3.61h5.65c-2.55-2.71-4.2-6.32-4.74-14.09-.37-10.11-1.1-20-1.64-30.16-.19-3.43-1.28-6.33-4.75-6.14H82.51c-.54-2.89-.36-8.85-1.09-11.38-1.09-2.71-3.83-3.8-6.92-4a3.42,3.42,0,0,1,2.36-.54h2.37c1.83-.36,2.38-2,2.55-3.61a2.84,2.84,0,0,1-2.55,1.08h-3.1c-1.63,0-2.36,1.63-2.55,2.89Z" fill="#b92917" fill-rule="evenodd"/><path d="M72.77,0c40.16,0,72.94,33,72.94,73.26,0,40.43-32.78,73.43-72.94,73.43S0,113.69,0,73.26C0,33,32.6,0,72.77,0Zm0,2.54C34.05,2.54,2.52,34.27,2.52,73.26s31.53,70.9,70.25,70.9,70.42-31.92,70.42-70.9S111.49,2.54,72.77,2.54Z" fill="#b92917" fill-rule="evenodd"/><path d="M8.86,71H12.3v.36a4.22,4.22,0,0,0-2,1.1,3.55,3.55,0,0,0-.73,2.19,2.22,2.22,0,0,0,.36,1.28,1,1,0,0,0,.91.55c.54,0,1.27-.73,1.81-2.38h0c.18-.18.18-.18.18-.36a5.56,5.56,0,0,1,1.45-2.2.91.91,0,0,1,.71-.36c.19-.18.37-.18.73-.18a3,3,0,0,1,2.17.91,4,4,0,0,1,.9,2.56,7.55,7.55,0,0,1-.36,1.82,8,8,0,0,1-.36.92c0,.18.18.18.18.36h.54v.37l-3.07.18v-.37a3.68,3.68,0,0,0,1.8-1.09,3.65,3.65,0,0,0,.55-2,1.36,1.36,0,0,0-.36-1.1,1,1,0,0,0-.73-.36c-.54,0-1.08.55-1.44,1.83l-.18.18c-.37.73-.54,1.46-.72,1.82-.19.19-.36.55-.55.73-.36.19-.54.37-.9.55a2.3,2.3,0,0,1-1.08.18,2.44,2.44,0,0,1-2.18-.91A3.23,3.23,0,0,1,9,75a7.88,7.88,0,0,1,.19-2,7.13,7.13,0,0,1,.35-.92c0-.18-.18-.36-.18-.55H8.86Zm3.26,15a4,4,0,0,0-.91.55,1.38,1.38,0,0,0-.18.91h-.36l-.9-5.11.36-.18c.18.54.18.73.54.91.18.18.54.18,1.09.18l5.77-1.09c.37-.19.73-.19.91-.55.19-.18.19-.55.19-.91H19L19.89,86h-.37a.83.83,0,0,0-.54-.91.8.8,0,0,0-.9,0Zm4.15,12.78a4.22,4.22,0,0,1-2-1.09,4.68,4.68,0,0,1-1.27-2,3.35,3.35,0,0,1-.18-1.83,5.44,5.44,0,0,1,.36-1.64,5.56,5.56,0,0,1,1.26-1.64,5.72,5.72,0,0,1,1.81-.92,4.57,4.57,0,0,1,3.79.19,4.8,4.8,0,0,1,2.36,2.92,6,6,0,0,1,.17,1.82v.92c0,.18.19.18.19.18a.67.67,0,0,0,.54.18v.37l-2.7.91-.19-.36a3.78,3.78,0,0,0,1.45-1.47,2.68,2.68,0,0,0,0-1.64,2,2,0,0,0-1.45-1.46,6.37,6.37,0,0,0-3.07.37A7,7,0,0,0,14.46,94a2,2,0,0,0-.36,2.19,2.93,2.93,0,0,0,.9,1.28,3.89,3.89,0,0,0,1.45.73Zm3.44,6.4,2.34-1.46,1.45,2.37-2.34,1.64a1.92,1.92,0,0,1-.91.19c-.36,0-.54-.19-.73-.55l-.35.18,2.71,4.57.36-.19a1.22,1.22,0,0,1-.19-1.09c0-.19.37-.37.73-.73L27.84,107a1.18,1.18,0,0,1,.91-.36c.35,0,.54.18.72.55l.36-.19-2.71-4.38-.36.18c.18.37.36.55.18.92,0,.18-.37.54-.72.73l-2,1.27-1.64-2.37L24.77,102a1.18,1.18,0,0,1,.91-.36c.35,0,.54.18.89.54l.19-.18L24,97.66l-.35.18c.17.37.35.73.17.91,0,.19-.17.55-.71.73l-4.89,3.29c-.54.19-.9.37-1.08.19-.36,0-.54-.19-.73-.55l-.36.18L19,107.16l.19-.19a2.21,2.21,0,0,1-.19-1.09c0-.19.37-.37.73-.73Zm12.47,13.14,3.08-2.92a1.66,1.66,0,0,0,.54-.91c.17-.37,0-.55-.37-.91l.37-.19,2,2.2-.19.18a1.62,1.62,0,0,0-.9-.55c-.36,0-.54.18-.9.55l-3.07,2.92a4.18,4.18,0,0,1-1.27.91,2.48,2.48,0,0,1-1.09.37,4,4,0,0,1-1.44-.37,4.7,4.7,0,0,1-1.45-1.28,3.42,3.42,0,0,1-1.26-2.55,2.86,2.86,0,0,1,1.26-2.38l3.26-3.1a3.25,3.25,0,0,1,.54-.91,1.75,1.75,0,0,0-.54-.92l.35-.18,3.62,3.84-.36.18a1.39,1.39,0,0,0-.72-.37,1.59,1.59,0,0,0-1.09.55l-3.61,3.47A1.88,1.88,0,0,0,28,117.2a2.51,2.51,0,0,0,.54,1.46,2.2,2.2,0,0,0,1.64.73,5.41,5.41,0,0,0,2-1.1ZM35.26,123l1.26-.73,2,1.46L38,125.42c0,.18,0,.18-.17.18v.18c-.19.18-.37.37-.37.37-.18-.19-.54-.19-.9-.55l-.18.36,4,2.74.17-.18-.35-.36a1.14,1.14,0,0,1,.18-.74l2.16-8.58-.9-.73-7.23,4.75c-.36.18-.54.18-.72.36-.36,0-.55-.18-.73-.18l-.17.18,2.34,1.65.19-.18-.19-.19c-.18-.18-.36-.36-.36-.54-.18-.19,0-.37,0-.55.18,0,.18,0,.18-.19.18,0,.18,0,.37-.18Zm1.8-1.09,2.35-1.65-.9,2.74Zm10.31,1.64a2.49,2.49,0,0,0,.17-1.1,2.23,2.23,0,0,0-.72-.54l.18-.37,3.44,1.64L52.06,130l1.64-3.29c.17-.54.35-.91.17-1.09,0-.18-.17-.55-.72-.73l.18-.37L56,125.78l-.18.37a.77.77,0,0,0-.9,0c-.18,0-.55.36-.72.73l-3.07,6.94-1.1-.37-2.34-9.31-2.35,5.11c-.18.55-.37.91-.18,1.1,0,.18.35.54.72.73l-.18.36L43,130l.19-.18a.82.82,0,0,0,.91,0c.17,0,.54-.37.72-.73Zm22.95,10.59.37-4.2c0-.55,0-.91-.19-1.09a1,1,0,0,0-.9-.37l.18-.36,2.9.18v.36a1.39,1.39,0,0,0-.91.37,1.4,1.4,0,0,0-.36.91l-.37,4.2a11,11,0,0,1-.35,1.65c-.19.36-.37.54-.54.91a3.74,3.74,0,0,1-1.45.73,5.58,5.58,0,0,1-1.81.18,4.75,4.75,0,0,1-2.71-1.09,4.46,4.46,0,0,1-.73-2.74l.37-4.39a1,1,0,0,0-.18-1.09c0-.18-.36-.37-.73-.37v-.36l5.25.36v.37a1.55,1.55,0,0,0-1.09.36c-.18.19-.18.37-.36.92l-.36,5.11c0,.73,0,1.28.36,1.64.18.37.54.55,1.26.55a2.17,2.17,0,0,0,1.63-.55,3.46,3.46,0,0,0,.72-2.19Zm5.07-4.2a1.36,1.36,0,0,0-.37-.91,1.33,1.33,0,0,0-.89-.18l-.19-.37,4-.55L83,132.72l-.55-3.65a1,1,0,0,0-.36-.91,1.33,1.33,0,0,0-.9-.37l-.18-.18,3.07-.55v.36c-.36.19-.72.19-.9.55a.84.84,0,0,0,0,.92l.9,7.67-.9.18-7.06-6.58.73,5.67c.18.54.18.91.54,1.09.18.18.37.18.91.18v.37l-2.89.36-.18-.36a1,1,0,0,0,.89-.37,2.21,2.21,0,0,0,.19-1.09ZM92.2,132.9a2,2,0,0,0,.54.92,1.36,1.36,0,0,0,.91.18l.18.18-5.06,1.46-.19-.18a1.22,1.22,0,0,0,.9-.73v-.91L87.68,128a1,1,0,0,0-.54-.91.81.81,0,0,0-.9,0v-.37l5.06-1.46v.37c-.37.18-.73.36-.73.55-.18.18-.18.54,0,1.09Zm8.5-1.46.54-.18-.73-8.95v-.91c.19-.18.36-.37.54-.55l-.18-.36L98.34,122l.18.18c.37,0,.54-.18.73-.18s.36.18.54.36v.55l.54,4.75-3.8-3.29-.17-.18a.18.18,0,0,0-.18-.18v-.37c.18-.18.35-.37.54-.37v-.36l-4.34,2.19.18.37c.18-.19.36-.19.72-.19a2.46,2.46,0,0,0,.72.55Zm7-3.83-.19-.19a1.66,1.66,0,0,0,.54-.91c0-.36-.18-.55-.35-.91l-3.8-4.75c-.37-.36-.54-.55-.91-.55-.18-.18-.54,0-.9.19l-.18-.19,6.33-5.11,1.62,1.83-.17.36a2.21,2.21,0,0,0-1.64-.73c-.35-.18-.89.18-1.62.73l-.91.73,2.18,2.92.17-.18a1,1,0,0,0,.55-.91,2.38,2.38,0,0,0-.55-1.46l.37-.37,2.71,3.65-.18.19c-.54-.55-.91-.92-1.27-.92a1.49,1.49,0,0,0-1.26.37v.18l1.8,2.19c.19.37.36.55.55.55a1.62,1.62,0,0,0,.9-.55,2.67,2.67,0,0,0,.9-3.83l.37-.18,1.44,2.55Zm8.67-14.06.19-.19a2,2,0,0,0,.54-1.27,2.86,2.86,0,0,0-.91-1.28,2.13,2.13,0,0,0-1.44-.73c-.55,0-.91.36-1.27.91Zm2.53,2-2-1.65.19-.18,4.7.91L124,111.9l-.18-.18c-.17.18-.36.37-.54.37h-.9l-3.62-.73a5.17,5.17,0,0,0,.18-1.65,2.1,2.1,0,0,0-.91-1.28,1.63,1.63,0,0,0-2-.36,5.56,5.56,0,0,0-2.35,1.64l-3.26,4,.19.18a3,3,0,0,1,.9-.36,1.16,1.16,0,0,1,.9.36l4.52,3.84c.37.36.73.73.73.91,0,.36-.19.55-.36.91l.17.19,3.44-4-.18-.37c-.36.37-.54.55-.9.55-.18.18-.54,0-.91-.36Zm7.59-6.4-3.07-1.64.19-.36a3.42,3.42,0,0,0,2.34.18,3.57,3.57,0,0,0,1.63-1.65,1.74,1.74,0,0,0,.36-1.27,1,1,0,0,0-.54-.92c-.54-.18-1.45.19-2.71,1.1h-.19c0,.18-.17.18-.35.36a4,4,0,0,1-2.18,1.1.55.55,0,0,1-.72,0c-.36,0-.54,0-.72-.18a2.84,2.84,0,0,1-1.44-2,3.47,3.47,0,0,1,.54-2.56,2.46,2.46,0,0,1,1.08-1.28l.72-.73c.19-.18.19-.36,0-.36,0-.19-.18-.19-.35-.37l.17-.36L124,99.67l-.18.36a1.94,1.94,0,0,0-2,0,2.6,2.6,0,0,0-1.63,1.46,2.25,2.25,0,0,0-.19,1.1c0,.37.19.55.55.73s1.09,0,2.17-.73v-.18a11.23,11.23,0,0,1,1.63-1.1c.36-.36.71-.36.9-.55h1.08a2.62,2.62,0,0,1,1.09.37,2.75,2.75,0,0,1,1.44,2,4.14,4.14,0,0,1-.54,2.74c-.36.36-.72.91-1.27,1.46l-.72.73v.36a.39.39,0,0,0,.37.37Zm4.88-14.42-5.6-2.19a1.94,1.94,0,0,1-.9-.55v-.92l-.18-.18-2,4.93.37.19c.17-.37.35-.74.54-.74a1.15,1.15,0,0,1,1.08,0l5.6,2.2a4,4,0,0,1,.91.54,2.25,2.25,0,0,1-.19,1.1l.36.18,2-5.11h-.36a1.42,1.42,0,0,1-.72.73,2,2,0,0,1-.91-.18Zm-4-14.43,2.35.55-.18.36a3.29,3.29,0,0,0-1.44.19c-.37.18-.55.73-.73,1.27l-.18.55,6.87,1.65c.54.18.9.18,1.09,0a2.22,2.22,0,0,0,.54-.92l.36.19-1.27,5.11h-.36a1.17,1.17,0,0,0,0-1.1,1.38,1.38,0,0,0-.91-.36l-6.86-1.65-.19.55a1.78,1.78,0,0,0,.19,1.46,1.87,1.87,0,0,0,1.08.92v.36l-2.35-.55Zm5.06-7.3,2.72.18a1.25,1.25,0,0,0,1.26-1.28h.36v5.3h-.36a1.43,1.43,0,0,0-.36-.92c-.19-.18-.55-.18-1.09-.18l-2-.18-4.33,2.37a2.56,2.56,0,0,0-.73.55c-.18.18-.18.37-.18.73h-.36V74.65h.36a.68.68,0,0,0,.18.55l.19.18h.17l.18-.18L132,73.55l-3.08-1.82h-.17c-.19-.19-.19-.19-.37-.19s-.17.19-.36.37v.73h-.36V69.9H128v.18a.56.56,0,0,0,.19.37c0,.18.17.37.54.55Z" fill="#b92917" fill-rule="evenodd"/><path d="M60.06,118v-.36a3.34,3.34,0,0,0,1.46-.17c.19,0,.19-.18.19-.36V113a.62.62,0,0,0-.19-.53H60.24v-.36a14.06,14.06,0,0,0,1.47-.35,2.46,2.46,0,0,0,1.47-.53h.37v5.83a.39.39,0,0,0,.37.36c.18.17.55.17,1.29.17V118H60.06Zm9.37-3c-.37.18-.55.36-.92.53a1.33,1.33,0,0,0-.18.71,1.23,1.23,0,0,0,.55,1.06,2.69,2.69,0,0,0,1.29.35,1.4,1.4,0,0,0,1.1-.35.91.91,0,0,0,.36-.71c0-.35-.18-.53-.55-.88-.36-.18-.91-.35-1.65-.71Zm.91-1.06a2.2,2.2,0,0,0,.74-.53c.19-.17.19-.35.19-.7a1.33,1.33,0,0,0-.37-.71,2.06,2.06,0,0,0-1.11-.18,1.66,1.66,0,0,0-.91.18c-.19.17-.37.35-.37.53,0,.35.18.53.55.71.18.35.73.53,1.28.7Zm-1.65.71a2.88,2.88,0,0,1-1.1-.71.94.94,0,0,1-.37-.88,1.33,1.33,0,0,1,.74-1.24,4.06,4.06,0,0,1,2.21-.53,3.2,3.2,0,0,1,1.83.53c.37.18.74.53.74.89s-.19.53-.37.88a10,10,0,0,0-1.29.71,5.31,5.31,0,0,1,1.47.7,1.58,1.58,0,0,1,.55,1.24,1.78,1.78,0,0,1-.91,1.41,4,4,0,0,1-2.21.53,4.25,4.25,0,0,1-2.39-.53c-.55-.35-.92-.7-.92-1.23a1.51,1.51,0,0,1,.55-1.06,3.64,3.64,0,0,1,1.47-.71Zm5.51,3,.56-.53c.18.18.37.36.55.36.37,0,.55.17.74.17a2.62,2.62,0,0,0,1.84-.88,3.13,3.13,0,0,0,.55-1.94h0a2.2,2.2,0,0,1-.93.88,2.74,2.74,0,0,1-1.28.18,3.06,3.06,0,0,1-1.65-.53A1.94,1.94,0,0,1,74,113.9a2.79,2.79,0,0,1,.91-1.94,4.08,4.08,0,0,1,2.21-.71,3.15,3.15,0,0,1,2.2.88,2.91,2.91,0,0,1,.92,2.13,4.83,4.83,0,0,1-.37,1.59,2.72,2.72,0,0,1-.73,1.23c-.56.36-.92.53-1.47.89a4.9,4.9,0,0,1-1.65.17,2.53,2.53,0,0,1-1.11-.17,1.45,1.45,0,0,1-.74-.36Zm3-2.65c.36,0,.74,0,.91-.35a1.31,1.31,0,0,0,.38-.88,3.2,3.2,0,0,0-.38-1.42,1.6,1.6,0,0,0-1.1-.53,1,1,0,0,0-.91.53c-.19.18-.19.53-.19,1.06a2.52,2.52,0,0,0,.37,1.24c.18.35.55.35.92.35Zm7.35-.53c-.37,0-.55.18-.92.36-.18.17-.18.53-.18.88,0,.71,0,1.06.36,1.41a1,1,0,0,0,.92.53,1.4,1.4,0,0,0,.92-.35c.18-.18.18-.53.18-1.06s0-1.06-.18-1.24a1.34,1.34,0,0,0-1.1-.53ZM87.62,112l-.74.35a.66.66,0,0,0-.55-.18c-.17-.17-.36-.17-.73-.17a1.79,1.79,0,0,0-1.65.71,2.59,2.59,0,0,0-.74,1.94h0a1.89,1.89,0,0,1,.92-.71,2.84,2.84,0,0,1,1.29-.35,2.29,2.29,0,0,1,1.65.53,2.09,2.09,0,0,1,.55,1.59,2.2,2.2,0,0,1-.74,1.77,3,3,0,0,1-2.2.7,3.18,3.18,0,0,1-2.38-.7,3.32,3.32,0,0,1-.93-2.3,4.85,4.85,0,0,1,.38-1.59,4.52,4.52,0,0,1,.91-1.06,3.19,3.19,0,0,1,1.29-.88,5.44,5.44,0,0,1,1.65-.36c.37,0,.73.18,1.11.18C87.07,111.61,87.26,111.78,87.62,112Z" fill="#b92917" fill-rule="evenodd"/><path d="M72.86,25.6c26.66,0,48.24,21.5,48.24,47.66a47.77,47.77,0,0,1-24.85,41.93l-1.09-2a45.34,45.34,0,0,0,23.94-40c0-25.09-20.68-45.51-46.24-45.51-25.4,0-46.25,20.42-46.25,45.51A45.57,45.57,0,0,0,50.73,113.4l-.9,1.79A47.52,47.52,0,0,1,24.61,73.26C24.61,47.1,46.38,25.6,72.86,25.6Z" fill="#b92917" fill-rule="evenodd"/></g></g></svg>